<?xml version="1.0" encoding="UTF-8" standalone="no"?>
<!-- Created with Inkscape (http://www.inkscape.org/) -->

<svg
   xmlns:ns0="http://www.iki.fi/pav/software/textext/"
   xmlns:dc="http://purl.org/dc/elements/1.1/"
   xmlns:cc="http://creativecommons.org/ns#"
   xmlns:rdf="http://www.w3.org/1999/02/22-rdf-syntax-ns#"
   xmlns:svg="http://www.w3.org/2000/svg"
   xmlns="http://www.w3.org/2000/svg"
   xmlns:sodipodi="http://sodipodi.sourceforge.net/DTD/sodipodi-0.dtd"
   xmlns:inkscape="http://www.inkscape.org/namespaces/inkscape"
   width="175.43253mm"
   height="104.00077mm"
   viewBox="0 0 175.43253 104.00077"
   version="1.1"
   id="svg8"
   inkscape:version="0.92.1 r15371"
   sodipodi:docname="ballbeam.svg">
  <sodipodi:namedview
     id="base"
     pagecolor="#ffffff"
     bordercolor="#666666"
     borderopacity="1.0"
     inkscape:pageopacity="0.0"
     inkscape:pageshadow="2"
     inkscape:zoom="1.979899"
     inkscape:cx="175.62977"
     inkscape:cy="188.47461"
     inkscape:document-units="mm"
     inkscape:current-layer="layer1"
     showgrid="true"
     inkscape:snap-grids="false"
     inkscape:window-width="1680"
     inkscape:window-height="1028"
     inkscape:window-x="-8"
     inkscape:window-y="-8"
     inkscape:window-maximized="1"
     showguides="false">
    <inkscape:grid
       id="grid4596"
       type="xygrid"
       originx="-0.92684915"
       originy="-191.60571" />
  </sodipodi:namedview>
  <defs
     id="defs2">
    <marker
       inkscape:isstock="true"
       style="overflow:visible"
       id="marker4902"
       refX="0"
       refY="0"
       orient="auto"
       inkscape:stockid="Arrow2Lend">
      <path
         inkscape:connector-curvature="0"
         transform="matrix(-1.1,0,0,-1.1,-1.1,0)"
         d="M 8.7185878,4.0337352 -2.2072895,0.01601326 8.7185884,-4.0017078 c -1.7454984,2.3720609 -1.7354408,5.6174519 -6e-7,8.035443 z"
         style="fill:#000000;fill-opacity:1;fill-rule:evenodd;stroke:#000000;stroke-width:0.625;stroke-linejoin:round;stroke-opacity:1"
         id="path4900" />
    </marker>
    <marker
       inkscape:isstock="true"
       style="overflow:visible;"
       id="Arrow1Mend"
       refX="0.0"
       refY="0.0"
       orient="auto"
       inkscape:stockid="Arrow1Mend">
      <path
         transform="scale(0.4) rotate(180) translate(10,0)"
         style="fill-rule:evenodd;stroke:#000000;stroke-width:1pt;stroke-opacity:1;fill:#000000;fill-opacity:1"
         d="M 0.0,0.0 L 5.0,-5.0 L -12.5,0.0 L 5.0,5.0 L 0.0,0.0 z "
         id="path4585" />
    </marker>
    <marker
       inkscape:stockid="StopL"
       orient="auto"
       refY="0.0"
       refX="0.0"
       id="StopL"
       style="overflow:visible"
       inkscape:isstock="true">
      <path
         id="path4863"
         d="M 0.0,5.65 L 0.0,-5.65"
         style="fill:none;fill-opacity:0.75;fill-rule:evenodd;stroke:#000000;stroke-width:1pt;stroke-opacity:1"
         transform="scale(0.8)" />
    </marker>
    <marker
       inkscape:stockid="Arrow1Lstart"
       orient="auto"
       refY="0"
       refX="0"
       id="marker5276"
       style="overflow:visible"
       inkscape:isstock="true">
      <path
         id="path5274"
         d="M 0,0 5,-5 -12.5,0 5,5 Z"
         style="fill:#000000;fill-opacity:1;fill-rule:evenodd;stroke:#000000;stroke-width:1.00000003pt;stroke-opacity:1"
         transform="matrix(0.8,0,0,0.8,10,0)"
         inkscape:connector-curvature="0" />
    </marker>
    <marker
       inkscape:stockid="Arrow2Lend"
       orient="auto"
       refY="0"
       refX="0"
       id="marker5212"
       style="overflow:visible"
       inkscape:isstock="true">
      <path
         id="path5210"
         style="fill:#000000;fill-opacity:1;fill-rule:evenodd;stroke:#000000;stroke-width:0.625;stroke-linejoin:round;stroke-opacity:1"
         d="M 8.7185878,4.0337352 -2.2072895,0.01601326 8.7185884,-4.0017078 c -1.7454984,2.3720609 -1.7354408,5.6174519 -6e-7,8.035443 z"
         transform="matrix(-1.1,0,0,-1.1,-1.1,0)"
         inkscape:connector-curvature="0" />
    </marker>
    <inkscape:path-effect
       only_selected="false"
       apply_with_weight="true"
       apply_no_weight="true"
       helper_size="0"
       steps="2"
       weight="33.333333"
       is_visible="true"
       id="path-effect5184"
       effect="bspline" />
    <marker
       inkscape:collect="always"
       inkscape:stockid="Arrow2Lend"
       orient="auto"
       refY="0"
       refX="0"
       id="marker5134"
       style="overflow:visible"
       inkscape:isstock="true">
      <path
         id="path5132"
         style="fill:#000000;fill-opacity:1;fill-rule:evenodd;stroke:#000000;stroke-width:0.625;stroke-linejoin:round;stroke-opacity:1"
         d="M 8.7185878,4.0337352 -2.2072895,0.01601326 8.7185884,-4.0017078 c -1.7454984,2.3720609 -1.7354408,5.6174519 -6e-7,8.035443 z"
         transform="matrix(-1.1,0,0,-1.1,-1.1,0)"
         inkscape:connector-curvature="0" />
    </marker>
    <marker
       inkscape:collect="always"
       inkscape:isstock="true"
       style="overflow:visible"
       id="Arrow2Lend"
       refX="0"
       refY="0"
       orient="auto"
       inkscape:stockid="Arrow2Lend">
      <path
         transform="matrix(-1.1,0,0,-1.1,-1.1,0)"
         d="M 8.7185878,4.0337352 -2.2072895,0.01601326 8.7185884,-4.0017078 c -1.7454984,2.3720609 -1.7354408,5.6174519 -6e-7,8.035443 z"
         style="fill:#000000;fill-opacity:1;fill-rule:evenodd;stroke:#000000;stroke-width:0.625;stroke-linejoin:round;stroke-opacity:1"
         id="path4653"
         inkscape:connector-curvature="0" />
    </marker>
    <marker
       inkscape:isstock="true"
       style="overflow:visible"
       id="Arrow1Lstart"
       refX="0"
       refY="0"
       orient="auto"
       inkscape:stockid="Arrow1Lstart">
      <path
         transform="matrix(0.8,0,0,0.8,10,0)"
         style="fill:#000000;fill-opacity:1;fill-rule:evenodd;stroke:#000000;stroke-width:1.00000003pt;stroke-opacity:1"
         d="M 0,0 5,-5 -12.5,0 5,5 Z"
         id="path4632"
         inkscape:connector-curvature="0" />
    </marker>
  </defs>
  <metadata
     id="metadata5">
    <rdf:RDF>
      <cc:Work
         rdf:about="">
        <dc:format>image/svg+xml</dc:format>
        <dc:type
           rdf:resource="http://purl.org/dc/dcmitype/StillImage" />
        <dc:title />
      </cc:Work>
    </rdf:RDF>
  </metadata>
  <g
     id="layer1"
     inkscape:groupmode="layer"
     inkscape:label="Ebene 1"
     transform="translate(-0.92684912,-1.3935104)">
    <path
       sodipodi:nodetypes="csc"
       inkscape:connector-curvature="0"
       id="path4517-9"
       d="m 83.239086,39.444289 c 7.847453,0.05316 13.638105,2.638181 16.853724,12.434201 3.21567,9.795986 -2.334765,20.27501 -12.397156,23.40554"
       style="opacity:1;fill:none;fill-opacity:1;fill-rule:nonzero;stroke:#000000;stroke-width:0.28580582;stroke-linecap:square;stroke-linejoin:miter;stroke-miterlimit:4;stroke-dasharray:1.71483485, 1.71483485;stroke-dashoffset:0;stroke-opacity:1;marker-start:url(#marker5276);paint-order:stroke markers fill" />
    <g
       transform="matrix(0.92075228,-0.28300419,0.29069988,0.89637724,-44.838681,-9.7687046)"
       id="g4592">
      <circle
         style="opacity:1;fill:none;fill-opacity:1;fill-rule:nonzero;stroke:#000000;stroke-width:0.46866325;stroke-linecap:square;stroke-miterlimit:4;stroke-dasharray:none;stroke-dashoffset:2.85047913;stroke-opacity:1"
         id="path4517"
         cx="105.64434"
         cy="108.23868"
         r="11.071472" />
      <rect
         style="opacity:1;fill:#ffffff;fill-opacity:1;fill-rule:nonzero;stroke:#000000;stroke-width:0.5;stroke-linecap:square;stroke-miterlimit:4;stroke-dasharray:none;stroke-dashoffset:2.85047913;stroke-opacity:1"
         id="rect4485-6"
         width="20.771"
         height="4.9814382"
         x="108.19668"
         y="-108.13506"
         transform="rotate(90)" />
      <rect
         style="opacity:1;fill:#ffffff;fill-opacity:1;fill-rule:nonzero;stroke:#000000;stroke-width:0.5;stroke-linecap:square;stroke-miterlimit:4;stroke-dasharray:none;stroke-dashoffset:2.85047913;stroke-opacity:1"
         id="rect4485"
         width="179.91667"
         height="4.9814382"
         x="15.686008"
         y="124.95309" />
      <circle
         style="opacity:1;fill:#ffffff;fill-opacity:1;fill-rule:nonzero;stroke:#000000;stroke-width:0.46866325;stroke-linecap:square;stroke-miterlimit:4;stroke-dasharray:none;stroke-dashoffset:2.85047913;stroke-opacity:1"
         id="path4517-7"
         cx="105.64434"
         cy="108.23868"
         r="6.908145" />
    </g>
    <ellipse
       cy="79.212456"
       cx="118.13187"
       id="path4594"
       style="opacity:1;fill:#cdd4e2;fill-opacity:1;fill-rule:nonzero;stroke:#000000;stroke-width:0.47637129;stroke-linecap:square;stroke-miterlimit:4;stroke-dasharray:none;stroke-dashoffset:2.85047913;stroke-opacity:1"
       transform="matrix(0.95586773,-0.29379734,0.30848831,0.95122813,0,0)"
       rx="15.98349"
       ry="15.636255" />
    <path
       inkscape:connector-curvature="0"
       id="path4598"
       d="M 8.0688315,80.100347 64.100446,62.878362"
       style="fill:none;fill-rule:evenodd;stroke:#000000;stroke-width:0.28580582;stroke-linecap:butt;stroke-linejoin:miter;stroke-miterlimit:4;stroke-dasharray:1.71483485, 1.71483485;stroke-dashoffset:0;stroke-opacity:1" />
    <path
       inkscape:connector-curvature="0"
       id="path4598-3"
       d="M 3.9490211,56.329124 62.706477,56.544756"
       style="fill:none;fill-rule:evenodd;stroke:#000000;stroke-width:0.28580582;stroke-linecap:butt;stroke-linejoin:miter;stroke-miterlimit:4;stroke-dasharray:1.71483485, 1.71483485;stroke-dashoffset:0;stroke-opacity:1" />
    <path
       sodipodi:nodetypes="cc"
       inkscape:connector-curvature="0"
       id="path4630"
       d="m 10.891169,55.760236 c -0.278791,7.316838 0.833183,11.659413 4.028232,21.861922"
       style="fill:none;fill-rule:evenodd;stroke:#000000;stroke-width:0.25206482px;stroke-linecap:butt;stroke-linejoin:miter;stroke-opacity:1;marker-end:url(#Arrow2Lend)" />
    <path
       inkscape:connector-curvature="0"
       id="path4598-56"
       d="m 72.052549,21.313136 5.878454,18.126298"
       style="fill:none;fill-rule:evenodd;stroke:#000000;stroke-width:0.28580582;stroke-linecap:butt;stroke-linejoin:miter;stroke-miterlimit:4;stroke-dasharray:1.71483485, 1.71483485;stroke-dashoffset:0;stroke-opacity:1" />
    <path
       inkscape:connector-curvature="0"
       id="path4598-56-2"
       d="m 125.64804,4.8399233 5.87845,18.1262987"
       style="fill:none;fill-rule:evenodd;stroke:#000000;stroke-width:0.28580582;stroke-linecap:butt;stroke-linejoin:miter;stroke-miterlimit:4;stroke-dasharray:1.71483487, 1.71483487;stroke-dashoffset:0;stroke-opacity:1" />
    <path
       sodipodi:nodetypes="cc"
       inkscape:connector-curvature="0"
       id="path5106"
       d="M 75.129122,30.799795 128.4352,14.514885"
       style="fill:none;fill-rule:evenodd;stroke:#000000;stroke-width:0.252;stroke-linecap:butt;stroke-linejoin:miter;stroke-miterlimit:4;stroke-dasharray:none;stroke-opacity:1;marker-end:url(#marker5134)" />
    <path
       style="fill:none;stroke:#000000;stroke-width:0.26458332;stroke-linecap:butt;stroke-linejoin:miter;stroke-opacity:1;marker-start:url(#StopL);marker-end:url(#StopL);stroke-miterlimit:4;stroke-dasharray:1.5874999,1.5874999;stroke-dashoffset:0"
       d="M 7.9298889,104.12672 173.73452,53.334152"
       id="path4692"
       inkscape:connector-curvature="0"
       sodipodi:nodetypes="cc" />
    <g
       style="font-style:normal;font-variant:normal;font-weight:normal;font-stretch:normal;letter-spacing:normal;word-spacing:normal;text-anchor:start;fill:#000000;fill-opacity:1;fill-rule:evenodd;stroke:#000000;stroke-linecap:butt;stroke-linejoin:miter;stroke-miterlimit:10.43299961;stroke-dasharray:none;stroke-dashoffset:0;stroke-opacity:1"
       ns0:preamble="C:\\Users\\Jonas\\AppData\\Roaming\\inkscape\\extensions\\default_packages.tex"
       ns0:text="$\\tau$"
       word-spacing="normal"
       letter-spacing="normal"
       font-size-adjust="none"
       font-stretch="normal"
       font-weight="normal"
       font-variant="normal"
       font-style="normal"
       stroke-miterlimit="10.433"
       xml:space="preserve"
       transform="matrix(0.8,0,0,-0.8,-16.517085,617.65032)"
       id="g5684"><path
         id="path5682"
         style="font-style:normal;font-variant:normal;font-weight:normal;font-stretch:normal;letter-spacing:normal;word-spacing:normal;text-anchor:start;fill:#000000;fill-opacity:1;fill-rule:evenodd;stroke:#000000;stroke-width:0;stroke-linecap:butt;stroke-linejoin:miter;stroke-miterlimit:10.43299961;stroke-dasharray:none;stroke-dashoffset:0;stroke-opacity:1"
         word-spacing="normal"
         stroke-miterlimit="10.433"
         letter-spacing="normal"
         font-weight="normal"
         font-variant="normal"
         font-style="normal"
         font-stretch="normal"
         font-size-adjust="none"
         d="m 151.64,710.83 h 1.67 c 0.13,0 0.49,0 0.49,0.34 0,0.24 -0.21,0.24 -0.4,0.24 h -2.79 c -0.2,0 -0.59,0 -1.02,-0.47 -0.33,-0.36 -0.61,-0.84 -0.61,-0.89 0,-0.01 0,-0.1 0.12,-0.1 0.08,0 0.1,0.04 0.16,0.12 0.49,0.76 1.05,0.76 1.26,0.76 h 0.83 l -0.98,-3.19 c -0.04,-0.12 -0.1,-0.33 -0.1,-0.37 0,-0.11 0.07,-0.26 0.29,-0.26 0.33,0 0.38,0.27 0.41,0.42 z"
         inkscape:connector-curvature="0" /></g>    <g
       id="g5768"
       transform="matrix(0.8,0,0,-0.8,-19.913107,585.96329)"
       xml:space="preserve"
       stroke-miterlimit="10.433"
       font-style="normal"
       font-variant="normal"
       font-weight="normal"
       font-stretch="normal"
       font-size-adjust="none"
       letter-spacing="normal"
       word-spacing="normal"
       ns0:text="$r$"
       ns0:preamble="C:\\Users\\Jonas\\AppData\\Roaming\\inkscape\\extensions\\default_packages.tex"
       style="font-style:normal;font-variant:normal;font-weight:normal;font-stretch:normal;letter-spacing:normal;word-spacing:normal;text-anchor:start;fill:#000000;fill-opacity:1;fill-rule:evenodd;stroke:#000000;stroke-linecap:butt;stroke-linejoin:miter;stroke-miterlimit:10.43299961;stroke-dasharray:none;stroke-dashoffset:0;stroke-opacity:1"><path
         inkscape:connector-curvature="0"
         d="m 149.59,707.71 v -0.01 l -0.01,-0.02 v -0.01 -0.02 l -0.01,-0.03 -0.01,-0.03 -0.01,-0.03 v -0.04 l -0.01,-0.03 -0.01,-0.03 v -0.01 l -0.01,-0.02 v -0.01 -0.02 -0.01 l -0.01,-0.01 v -0.02 -0.01 -0.01 l -0.01,-0.01 v -0.01 -0.01 -0.01 0 -0.01 -0.01 c 0,-0.18 0.14,-0.26 0.29,-0.26 0.12,0 0.3,0.07 0.36,0.27 0.03,0.04 0.36,1.39 0.4,1.57 0.08,0.33 0.26,1.03 0.32,1.3 0.04,0.12 0.32,0.59 0.56,0.81 0.08,0.07 0.37,0.33 0.79,0.33 0.26,0 0.41,-0.12 0.42,-0.12 -0.3,-0.05 -0.51,-0.29 -0.51,-0.55 0,-0.16 0.1,-0.35 0.37,-0.35 0.27,0 0.55,0.23 0.55,0.59 0,0.35 -0.32,0.65 -0.83,0.65 -0.64,0 -1.08,-0.49 -1.27,-0.77 -0.08,0.45 -0.44,0.77 -0.91,0.77 -0.45,0 -0.64,-0.39 -0.73,-0.57 -0.18,-0.34 -0.31,-0.93 -0.31,-0.96 0,-0.1 0.1,-0.1 0.12,-0.1 0.1,0 0.11,0.01 0.17,0.22 0.17,0.71 0.37,1.19 0.72,1.19 0.17,0 0.31,-0.08 0.31,-0.46 0,-0.21 -0.03,-0.32 -0.16,-0.83 z"
         font-size-adjust="none"
         font-stretch="normal"
         font-style="normal"
         font-variant="normal"
         font-weight="normal"
         letter-spacing="normal"
         stroke-miterlimit="10.433"
         word-spacing="normal"
         style="font-style:normal;font-variant:normal;font-weight:normal;font-stretch:normal;letter-spacing:normal;word-spacing:normal;text-anchor:start;fill:#000000;fill-opacity:1;fill-rule:evenodd;stroke:#000000;stroke-width:0;stroke-linecap:butt;stroke-linejoin:miter;stroke-miterlimit:10.43299961;stroke-dasharray:none;stroke-dashoffset:0;stroke-opacity:1"
         id="path5766" /></g>    <g
       style="font-style:normal;font-variant:normal;font-weight:normal;font-stretch:normal;letter-spacing:normal;word-spacing:normal;text-anchor:start;fill:#000000;fill-opacity:1;fill-rule:evenodd;stroke:#000000;stroke-linecap:butt;stroke-linejoin:miter;stroke-miterlimit:10.43299961;stroke-dasharray:none;stroke-dashoffset:0;stroke-opacity:1"
       ns0:preamble="C:\\Users\\Jonas\\AppData\\Roaming\\inkscape\\extensions\\default_packages.tex"
       ns0:text="$\\theta$"
       word-spacing="normal"
       letter-spacing="normal"
       font-size-adjust="none"
       font-stretch="normal"
       font-weight="normal"
       font-variant="normal"
       font-style="normal"
       stroke-miterlimit="10.433"
       xml:space="preserve"
       transform="matrix(0.8,0,0,-0.8,-103.15914,634.88823)"
       id="content"><path
         id="path5849"
         style="font-style:normal;font-variant:normal;font-weight:normal;font-stretch:normal;letter-spacing:normal;word-spacing:normal;text-anchor:start;fill:#000000;fill-opacity:1;fill-rule:evenodd;stroke:#000000;stroke-width:0;stroke-linecap:butt;stroke-linejoin:miter;stroke-miterlimit:10.43299961;stroke-dasharray:none;stroke-dashoffset:0;stroke-opacity:1"
         word-spacing="normal"
         stroke-miterlimit="10.433"
         letter-spacing="normal"
         font-weight="normal"
         font-variant="normal"
         font-style="normal"
         font-stretch="normal"
         font-size-adjust="none"
         d="m 153.24,712.09 v 0.07 0.06 l -0.01,0.07 v 0.08 l -0.01,0.07 v 0.08 l -0.01,0.08 -0.01,0.09 -0.02,0.08 -0.01,0.08 -0.02,0.09 -0.02,0.08 -0.02,0.09 -0.03,0.08 -0.03,0.08 -0.03,0.09 -0.03,0.07 -0.04,0.08 -0.04,0.08 -0.04,0.07 -0.05,0.06 -0.05,0.07 -0.05,0.06 -0.06,0.05 -0.06,0.05 -0.03,0.02 -0.04,0.03 -0.03,0.02 -0.04,0.01 -0.03,0.02 -0.04,0.02 -0.04,0.01 -0.04,0.01 -0.04,0.01 -0.04,0.01 -0.05,0.01 h -0.04 l -0.05,0.01 h -0.05 v -0.22 c 0.48,0 0.54,-0.64 0.54,-1.2 0,-0.49 -0.08,-1 -0.32,-1.98 h -2.08 c 0.17,0.64 0.37,1.43 0.77,2.14 0.27,0.48 0.64,1.04 1.09,1.04 v 0.22 c -1.38,0 -2.91,-2.8 -2.91,-5.08 0,-0.93 0.29,-2.03 1.19,-2.03 v 0.21 c -0.33,0 -0.53,0.29 -0.53,1.22 0,0.41 0.06,0.99 0.31,1.96 h 2.07 c -0.1,-0.45 -0.31,-1.3 -0.69,-2.01 -0.35,-0.68 -0.73,-1.17 -1.16,-1.17 v -0.21 c 1.41,0 2.92,2.85 2.92,5.07 z"
         inkscape:connector-curvature="0" /></g>    <path
       inkscape:connector-curvature="0"
       id="path4562"
       d="M 138.83792,75.192823 138.97156,94.7035"
       style="fill:none;stroke:#000000;stroke-width:0.265;stroke-linecap:butt;stroke-linejoin:miter;stroke-opacity:1;stroke-miterlimit:4;stroke-dasharray:none;marker-end:url(#marker4902)" />
    <g
       ns0:preamble="C:\\Users\\Jonas\\AppData\\Roaming\\inkscape\\extensions\\default_packages.tex"
       ns0:text="$g$"
       word-spacing="normal"
       letter-spacing="normal"
       font-size-adjust="none"
       font-stretch="normal"
       font-weight="normal"
       font-variant="normal"
       font-style="normal"
       stroke-miterlimit="10.433"
       xml:space="preserve"
       transform="matrix(0.8,0,0,-0.8,22.793231,651.11763)"
       id="g5023"
       style="font-style:normal;font-variant:normal;font-weight:normal;font-stretch:normal;letter-spacing:normal;word-spacing:normal;text-anchor:start;fill:#000000;fill-opacity:1;fill-rule:evenodd;stroke:#000000;stroke-linecap:butt;stroke-linejoin:miter;stroke-miterlimit:10.43299961;stroke-dasharray:none;stroke-dashoffset:0;stroke-opacity:1"><path
         id="path5021"
         d="m 153.4,710.87 v 0.01 0.01 0.01 l 0.01,0.01 v 0.02 0.02 l 0.01,0.01 v 0.01 0.01 0.01 0.01 l 0.01,0.01 v 0.01 0 0.01 0.01 0 0.01 c 0,0.17 -0.12,0.27 -0.29,0.27 -0.1,0 -0.37,-0.07 -0.41,-0.43 -0.18,0.37 -0.53,0.63 -0.92,0.63 l 0.01,-0.22 c 0.65,0 0.79,-0.81 0.79,-0.86 0,-0.05 -0.02,-0.11 -0.03,-0.15 l -0.48,-1.89 c -0.06,-0.26 -0.28,-0.51 -0.5,-0.7 -0.21,-0.18 -0.52,-0.36 -0.81,-0.36 -0.5,0 -0.64,0.52 -0.64,0.92 0,0.47 0.28,1.65 0.55,2.15 0.27,0.49 0.7,0.89 1.12,0.89 l -0.01,0.22 c -1.14,0 -2.37,-1.39 -2.37,-2.83 0,-0.98 0.6,-1.56 1.32,-1.56 0.59,0 1.06,0.46 1.16,0.57 l 0.01,-0.01 c -0.21,-0.88 -0.33,-1.29 -0.33,-1.31 -0.04,-0.09 -0.38,-1.07 -1.44,-1.07 -0.18,0 -0.51,0.01 -0.79,0.1 0.3,0.09 0.41,0.34 0.41,0.51 0,0.16 -0.11,0.35 -0.38,0.35 -0.22,0 -0.54,-0.18 -0.54,-0.58 0,-0.4 0.37,-0.6 1.32,-0.6 1.25,0 1.96,0.77 2.11,1.37 z"
         inkscape:connector-curvature="0"
         style="fill:#000000;stroke-width:0" /></g>    <g
       id="g4637"
       transform="matrix(0.8,0,0,-0.8,-33.80015,652.40093)"
       xml:space="preserve"
       stroke-miterlimit="10.433"
       font-style="normal"
       font-variant="normal"
       font-weight="normal"
       font-stretch="normal"
       font-size-adjust="none"
       letter-spacing="normal"
       word-spacing="normal"
       ns0:text="$L,J$"
       ns0:preamble="C:\\Users\\Jonas\\AppData\\Roaming\\inkscape\\extensions\\default_packages.tex"
       style="font-style:normal;font-variant:normal;font-weight:normal;font-stretch:normal;letter-spacing:normal;word-spacing:normal;text-anchor:start;fill:#000000;fill-opacity:1;fill-rule:evenodd;stroke:#000000;stroke-linecap:butt;stroke-linejoin:miter;stroke-miterlimit:10.43299961;stroke-dasharray:none;stroke-dashoffset:0;stroke-opacity:1"><path
         inkscape:connector-curvature="0"
         d="m 152.43,713.14 0.01,0.03 0.01,0.03 0.01,0.03 0.01,0.03 v 0.03 l 0.01,0.02 0.01,0.03 0.01,0.02 0.02,0.02 0.01,0.02 0.01,0.02 0.02,0.02 0.02,0.02 0.02,0.01 0.02,0.02 0.02,0.01 0.03,0.02 0.03,0.01 0.03,0.01 0.04,0.01 h 0.02 l 0.01,0.01 h 0.03 l 0.02,0.01 h 0.02 0.02 l 0.03,0.01 h 0.02 0.03 0.02 l 0.03,0.01 h 0.03 0.03 0.03 l 0.03,0.01 h 0.04 0.03 0.04 0.03 0.04 0.04 0.04 0.04 0.05 c 0.3,0 0.38,0 0.38,0.19 0,0.12 -0.11,0.12 -0.16,0.12 -0.33,0 -1.15,-0.03 -1.48,-0.03 -0.29,0 -1.02,0.03 -1.32,0.03 -0.07,0 -0.19,0 -0.19,-0.2 0,-0.11 0.09,-0.11 0.28,-0.11 0.02,0 0.21,0 0.38,-0.02 0.18,-0.02 0.27,-0.03 0.27,-0.16 0,-0.04 -0.01,-0.07 -0.04,-0.19 l -1.34,-5.33 c -0.09,-0.39 -0.12,-0.47 -0.9,-0.47 -0.17,0 -0.27,0 -0.27,-0.2 0,-0.1 0.09,-0.1 0.27,-0.1 h 4.61 c 0.23,0 0.24,0 0.3,0.16 l 0.79,2.15 c 0.04,0.11 0.04,0.13 0.04,0.14 0,0.04 -0.03,0.11 -0.12,0.11 -0.09,0 -0.1,-0.05 -0.17,-0.21 -0.34,-0.91 -0.78,-2.05 -2.5,-2.05 h -0.93 c -0.14,0 -0.16,0 -0.22,0.01 -0.1,0.01 -0.13,0.02 -0.13,0.1 0,0.03 0,0.05 0.05,0.23 z"
         font-size-adjust="none"
         font-stretch="normal"
         font-style="normal"
         font-variant="normal"
         font-weight="normal"
         letter-spacing="normal"
         stroke-miterlimit="10.433"
         word-spacing="normal"
         style="font-style:normal;font-variant:normal;font-weight:normal;font-stretch:normal;letter-spacing:normal;word-spacing:normal;text-anchor:start;fill:#000000;fill-opacity:1;fill-rule:evenodd;stroke:#000000;stroke-width:0;stroke-linecap:butt;stroke-linejoin:miter;stroke-miterlimit:10.43299961;stroke-dasharray:none;stroke-dashoffset:0;stroke-opacity:1"
         id="path4631" /><path
         inkscape:connector-curvature="0"
         d="m 157.51,707.14 v 0.06 0.05 0.06 l -0.01,0.06 -0.01,0.05 v 0.05 l -0.01,0.06 -0.01,0.04 -0.01,0.05 -0.02,0.05 -0.01,0.04 -0.02,0.04 -0.01,0.04 -0.02,0.04 -0.02,0.04 -0.02,0.03 -0.02,0.04 -0.02,0.03 -0.03,0.02 -0.02,0.03 -0.03,0.03 -0.03,0.02 -0.02,0.02 -0.03,0.02 -0.03,0.01 -0.03,0.02 -0.03,0.01 -0.04,0.01 -0.03,0.01 h -0.03 l -0.04,0.01 h -0.03 c -0.33,0 -0.53,-0.25 -0.53,-0.53 0,-0.27 0.2,-0.52 0.53,-0.52 0.11,0 0.24,0.03 0.34,0.12 0.03,0.02 0.04,0.03 0.05,0.03 0.01,0 0.02,-0.01 0.02,-0.14 0,-0.74 -0.34,-1.34 -0.67,-1.66 -0.11,-0.11 -0.11,-0.13 -0.11,-0.16 0,-0.07 0.05,-0.11 0.1,-0.11 0.11,0 0.9,0.76 0.9,1.93 z"
         font-size-adjust="none"
         font-stretch="normal"
         font-style="normal"
         font-variant="normal"
         font-weight="normal"
         letter-spacing="normal"
         stroke-miterlimit="10.433"
         word-spacing="normal"
         style="font-style:normal;font-variant:normal;font-weight:normal;font-stretch:normal;letter-spacing:normal;word-spacing:normal;text-anchor:start;fill:#000000;fill-opacity:1;fill-rule:evenodd;stroke:#000000;stroke-width:0;stroke-linecap:butt;stroke-linejoin:miter;stroke-miterlimit:10.43299961;stroke-dasharray:none;stroke-dashoffset:0;stroke-opacity:1"
         id="path4633" /><path
         inkscape:connector-curvature="0"
         d="m 165.31,713.18 v 0.03 l 0.01,0.03 0.01,0.03 v 0.03 l 0.01,0.02 0.01,0.02 0.01,0.03 v 0.02 l 0.01,0.02 0.01,0.02 0.01,0.01 0.01,0.02 0.01,0.02 0.02,0.01 0.01,0.01 0.01,0.02 0.02,0.01 0.02,0.01 0.02,0.01 0.02,0.01 h 0.02 l 0.03,0.01 0.02,0.01 h 0.02 0.01 l 0.02,0.01 h 0.01 0.02 0.02 0.01 0.02 l 0.02,0.01 h 0.02 0.02 0.02 0.02 0.03 0.02 0.02 0.03 0.02 c 0.16,0 0.27,0 0.27,0.19 0,0.09 -0.06,0.12 -0.14,0.12 -0.25,0 -0.85,-0.03 -1.1,-0.03 -0.33,0 -1.14,0.03 -1.46,0.03 -0.09,0 -0.21,0 -0.21,-0.2 0,-0.11 0.08,-0.11 0.34,-0.11 0.22,0 0.32,0 0.57,-0.02 0.24,-0.03 0.31,-0.06 0.31,-0.2 0,-0.06 -0.02,-0.13 -0.04,-0.21 l -1.14,-4.56 c -0.24,-0.96 -0.92,-1.48 -1.44,-1.48 -0.26,0 -0.78,0.09 -0.94,0.61 0.03,-0.01 0.1,-0.01 0.12,-0.01 0.39,0 0.65,0.34 0.65,0.64 0,0.31 -0.27,0.41 -0.44,0.41 -0.18,0 -0.67,-0.12 -0.67,-0.79 0,-0.62 0.53,-1.08 1.31,-1.08 0.92,0 1.95,0.65 2.2,1.64 z"
         font-size-adjust="none"
         font-stretch="normal"
         font-style="normal"
         font-variant="normal"
         font-weight="normal"
         letter-spacing="normal"
         stroke-miterlimit="10.433"
         word-spacing="normal"
         style="font-style:normal;font-variant:normal;font-weight:normal;font-stretch:normal;letter-spacing:normal;word-spacing:normal;text-anchor:start;fill:#000000;fill-opacity:1;fill-rule:evenodd;stroke:#000000;stroke-width:0;stroke-linecap:butt;stroke-linejoin:miter;stroke-miterlimit:10.43299961;stroke-dasharray:none;stroke-dashoffset:0;stroke-opacity:1"
         id="path4635" /></g>    <g
       style="stroke-linejoin:miter;letter-spacing:normal;stroke-opacity:1;fill-opacity:1;fill-rule:evenodd;stroke-linecap:butt;stroke-dashoffset:0;text-anchor:start;word-spacing:normal;stroke:#000000;font-stretch:normal;stroke-miterlimit:10.43299961;font-variant:normal;stroke-dasharray:none;font-weight:normal;font-style:normal;fill:black"
       ns0:preamble="C:\\Users\\Jonas\\AppData\\Roaming\\inkscape\\extensions\\default_packages.tex"
       ns0:text="$M,R,J_\\textup{b}$"
       text-anchor="start"
       word-spacing="normal"
       letter-spacing="normal"
       font-size-adjust="none"
       font-stretch="normal"
       font-weight="normal"
       font-variant="normal"
       font-style="normal"
       fill-opacity="1"
       fill-rule="evenodd"
       fill="black"
       stroke-opacity="1"
       stroke-dashoffset="0"
       stroke-dasharray="none"
       stroke-miterlimit="10.433"
       stroke-linejoin="miter"
       stroke-linecap="butt"
       stroke="black"
       xml:space="preserve"
       transform="matrix(0.800000,  0,  0,  -0.800000, 4.115493, 609.726330)"
       id="g4646"><path
         id="path4634"
         style="stroke-linejoin:miter;letter-spacing:normal;stroke-opacity:1;fill-opacity:1;fill-rule:evenodd;stroke-linecap:butt;stroke-dashoffset:0;text-anchor:start;word-spacing:normal;stroke:#000000;font-stretch:normal;stroke-miterlimit:10.43299961;font-variant:normal;stroke-dasharray:none;font-weight:normal;font-style:normal;fill:black"
         word-spacing="normal"
         stroke-miterlimit="10.433"
         letter-spacing="normal"
         font-weight="normal"
         font-variant="normal"
         font-style="normal"
         font-stretch="normal"
         font-size-adjust="none"
         fill="black"
         stroke-width="0"
         d="M157.93,713.15 L157.93,713.18 L157.94,713.21 L157.95,713.24 L157.96,713.27 L157.96,713.29 L157.97,713.32 L157.98,713.34 L157.99,713.37 L158,713.39 L158.01,713.41 L158.02,713.43 L158.04,713.45 L158.05,713.46 L158.07,713.48 L158.09,713.49 L158.11,713.51 L158.13,713.52 L158.15,713.53 L158.18,713.54 L158.21,713.55 L158.24,713.56 L158.25,713.56 L158.27,713.57 L158.29,713.57 L158.31,713.57 L158.32,713.58 L158.34,713.58 L158.37,713.58 L158.39,713.59 L158.41,713.59 L158.43,713.59 L158.46,713.59 L158.48,713.59 L158.51,713.6 L158.53,713.6 L158.56,713.6 L158.59,713.6 L158.62,713.6 L158.65,713.6 L158.68,713.6 L158.71,713.6 L158.75,713.6 L158.78,713.6 C159.01,713.6,159.1,713.6,159.1,713.8 C159.1,713.91,159,713.91,158.83,713.91 H157.52 C157.26,713.91,157.25,713.91,157.13,713.72 L153.5,708.06 L152.72,713.68 C152.69,713.91,152.67,713.91,152.41,713.91 H151.05 C150.86,713.91,150.75,713.91,150.75,713.72 C150.75,713.6,150.84,713.6,151.04,713.6 C151.17,713.6,151.35,713.59,151.47,713.58 C151.63,713.56,151.69,713.53,151.69,713.42 C151.69,713.38,151.68,713.35,151.65,713.23 L150.38,708.18 C150.28,707.78,150.12,707.46,149.31,707.43 C149.26,707.43,149.13,707.42,149.13,707.24 C149.13,707.16,149.19,707.13,149.27,707.13 C149.59,707.13,149.94,707.16,150.26,707.16 C150.6,707.16,150.96,707.13,151.29,707.13 C151.34,707.13,151.47,707.13,151.47,707.32 C151.47,707.43,151.36,707.43,151.29,707.43 C150.72,707.44,150.61,707.64,150.61,707.87 C150.61,707.94,150.62,707.99,150.65,708.1 L152.01,713.51 H152.01 L152.87,707.35 C152.89,707.23,152.9,707.13,153.02,707.13 C153.13,707.13,153.19,707.23,153.24,707.3 L157.26,713.59 H157.27 L155.85,707.9 C155.75,707.51,155.73,707.43,154.94,707.43 C154.77,707.43,154.66,707.43,154.66,707.24 C154.66,707.13,154.78,707.13,154.81,707.13 C155.09,707.13,155.77,707.16,156.04,707.16 C156.45,707.16,156.88,707.13,157.29,707.13 C157.35,707.13,157.48,707.13,157.48,707.32 C157.48,707.43,157.39,707.43,157.2,707.43 C156.83,707.43,156.55,707.43,156.55,707.61 C156.55,707.65,156.55,707.67,156.6,707.85 Z " /><path
         id="path4636"
         style="stroke-linejoin:miter;letter-spacing:normal;stroke-opacity:1;fill-opacity:1;fill-rule:evenodd;stroke-linecap:butt;stroke-dashoffset:0;text-anchor:start;word-spacing:normal;stroke:#000000;font-stretch:normal;stroke-miterlimit:10.43299961;font-variant:normal;stroke-dasharray:none;font-weight:normal;font-style:normal;fill:black"
         word-spacing="normal"
         stroke-miterlimit="10.433"
         letter-spacing="normal"
         font-weight="normal"
         font-variant="normal"
         font-style="normal"
         font-stretch="normal"
         font-size-adjust="none"
         fill="black"
         stroke-width="0"
         d="M160.93,707.14 L160.93,707.2 L160.93,707.25 L160.93,707.31 L160.92,707.37 L160.92,707.42 L160.91,707.47 L160.9,707.53 L160.89,707.57 L160.88,707.62 L160.86,707.67 L160.85,707.71 L160.84,707.75 L160.82,707.79 L160.8,707.83 L160.78,707.87 L160.76,707.9 L160.74,707.94 L160.72,707.97 L160.69,707.99 L160.67,708.02 L160.64,708.05 L160.62,708.07 L160.59,708.09 L160.56,708.11 L160.53,708.12 L160.5,708.14 L160.47,708.15 L160.44,708.16 L160.4,708.17 L160.37,708.17 L160.33,708.18 L160.3,708.18 C159.97,708.18,159.77,707.93,159.77,707.65 C159.77,707.38,159.97,707.13,160.3,707.13 C160.42,707.13,160.55,707.16,160.65,707.25 C160.68,707.27,160.69,707.28,160.7,707.28 C160.71,707.28,160.72,707.27,160.72,707.14 C160.72,706.4,160.37,705.8,160.04,705.48 C159.93,705.37,159.93,705.35,159.93,705.32 C159.93,705.25,159.98,705.21,160.03,705.21 C160.14,705.21,160.93,705.97,160.93,707.14 Z " /><path
         id="path4638"
         style="stroke-linejoin:miter;letter-spacing:normal;stroke-opacity:1;fill-opacity:1;fill-rule:evenodd;stroke-linecap:butt;stroke-dashoffset:0;text-anchor:start;word-spacing:normal;stroke:#000000;font-stretch:normal;stroke-miterlimit:10.43299961;font-variant:normal;stroke-dasharray:none;font-weight:normal;font-style:normal;fill:black"
         word-spacing="normal"
         stroke-miterlimit="10.433"
         letter-spacing="normal"
         font-weight="normal"
         font-variant="normal"
         font-style="normal"
         font-stretch="normal"
         font-size-adjust="none"
         fill="black"
         stroke-width="0"
         d="M168.5,710.5 L168.59,710.52 L168.69,710.55 L168.79,710.58 L168.88,710.61 L168.98,710.64 L169.08,710.67 L169.17,710.71 L169.27,710.75 L169.36,710.8 L169.45,710.84 L169.54,710.89 L169.63,710.94 L169.72,710.99 L169.81,711.05 L169.89,711.11 L169.97,711.17 L170.05,711.23 L170.12,711.29 L170.19,711.36 L170.26,711.43 L170.32,711.5 L170.38,711.57 L170.44,711.65 L170.49,711.73 L170.53,711.81 L170.57,711.89 L170.61,711.97 L170.64,712.06 L170.66,712.15 L170.68,712.24 L170.69,712.33 L170.69,712.42 C170.69,713.27,169.79,713.91,168.49,713.91 H165.65 C165.46,713.91,165.37,713.91,165.37,713.71 C165.37,713.6,165.46,713.6,165.64,713.6 C165.66,713.6,165.85,713.6,166.02,713.58 C166.2,713.56,166.29,713.55,166.29,713.42 C166.29,713.38,166.28,713.35,166.25,713.23 L164.92,707.9 C164.82,707.51,164.8,707.43,164.01,707.43 C163.83,707.43,163.74,707.43,163.74,707.23 C163.74,707.13,163.86,707.13,163.88,707.13 C164.16,707.13,164.86,707.16,165.14,707.16 C165.41,707.16,166.12,707.13,166.4,707.13 C166.48,707.13,166.6,707.13,166.6,707.32 C166.6,707.43,166.51,707.43,166.32,707.43 C165.95,707.43,165.67,707.43,165.67,707.61 C165.67,707.67,165.69,707.72,165.7,707.78 L166.36,710.41 H167.54 L167.54,710.63 H166.42 L167.07,713.22 C167.13,713.46,167.16,713.56,167.35,713.59 C167.43,713.6,167.75,713.6,167.95,713.6 C168.66,713.6,169.76,713.6,169.76,712.62 C169.76,712.28,169.6,711.59,169.22,711.21 C168.96,710.95,168.43,710.63,167.54,710.63 L167.54,710.41 C168.45,710.41,168.63,709.86,168.63,709.51 C168.63,709.36,168.55,709.05,168.49,708.82 C168.42,708.55,168.33,708.18,168.33,707.98 C168.33,706.91,169.52,706.91,169.65,706.91 C170.5,706.91,170.85,707.91,170.85,708.05 C170.85,708.17,170.74,708.17,170.73,708.17 C170.64,708.17,170.62,708.1,170.6,708.03 C170.35,707.29,169.92,707.13,169.69,707.13 C169.37,707.13,169.3,707.34,169.3,707.73 C169.3,708.04,169.35,708.55,169.4,708.86 C169.41,709,169.43,709.19,169.43,709.33 C169.43,710.09,168.77,710.4,168.5,710.5 Z " /><path
         id="path4640"
         style="stroke-linejoin:miter;letter-spacing:normal;stroke-opacity:1;fill-opacity:1;fill-rule:evenodd;stroke-linecap:butt;stroke-dashoffset:0;text-anchor:start;word-spacing:normal;stroke:#000000;font-stretch:normal;stroke-miterlimit:10.43299961;font-variant:normal;stroke-dasharray:none;font-weight:normal;font-style:normal;fill:black"
         word-spacing="normal"
         stroke-miterlimit="10.433"
         letter-spacing="normal"
         font-weight="normal"
         font-variant="normal"
         font-style="normal"
         font-stretch="normal"
         font-size-adjust="none"
         fill="black"
         stroke-width="0"
         d="M173,707.14 L173,707.2 L173,707.25 L172.99,707.31 L172.99,707.37 L172.98,707.42 L172.97,707.47 L172.97,707.53 L172.96,707.57 L172.94,707.62 L172.93,707.67 L172.92,707.71 L172.9,707.75 L172.88,707.79 L172.87,707.83 L172.85,707.87 L172.83,707.9 L172.81,707.94 L172.78,707.97 L172.76,707.99 L172.74,708.02 L172.71,708.05 L172.68,708.07 L172.65,708.09 L172.63,708.11 L172.6,708.12 L172.57,708.14 L172.53,708.15 L172.5,708.16 L172.47,708.17 L172.43,708.17 L172.4,708.18 L172.36,708.18 C172.04,708.18,171.84,707.93,171.84,707.65 C171.84,707.38,172.04,707.13,172.36,707.13 C172.48,707.13,172.61,707.16,172.71,707.25 C172.74,707.27,172.75,707.28,172.76,707.28 C172.77,707.28,172.78,707.27,172.78,707.14 C172.78,706.4,172.43,705.8,172.1,705.48 C171.99,705.37,171.99,705.35,171.99,705.32 C171.99,705.25,172.04,705.21,172.1,705.21 C172.2,705.21,173,705.97,173,707.14 Z " /><path
         id="path4642"
         style="stroke-linejoin:miter;letter-spacing:normal;stroke-opacity:1;fill-opacity:1;fill-rule:evenodd;stroke-linecap:butt;stroke-dashoffset:0;text-anchor:start;word-spacing:normal;stroke:#000000;font-stretch:normal;stroke-miterlimit:10.43299961;font-variant:normal;stroke-dasharray:none;font-weight:normal;font-style:normal;fill:black"
         word-spacing="normal"
         stroke-miterlimit="10.433"
         letter-spacing="normal"
         font-weight="normal"
         font-variant="normal"
         font-style="normal"
         font-stretch="normal"
         font-size-adjust="none"
         fill="black"
         stroke-width="0"
         d="M180.79,713.18 L180.8,713.21 L180.81,713.24 L180.82,713.27 L180.82,713.3 L180.83,713.32 L180.84,713.34 L180.84,713.37 L180.85,713.39 L180.86,713.41 L180.87,713.43 L180.88,713.44 L180.89,713.46 L180.9,713.48 L180.91,713.49 L180.93,713.5 L180.94,713.52 L180.96,713.53 L180.98,713.54 L181,713.55 L181.02,713.56 L181.04,713.56 L181.06,713.57 L181.09,713.58 L181.11,713.58 L181.12,713.58 L181.14,713.59 L181.15,713.59 L181.17,713.59 L181.19,713.59 L181.2,713.59 L181.22,713.59 L181.24,713.6 L181.26,713.6 L181.28,713.6 L181.3,713.6 L181.32,713.6 L181.34,713.6 L181.37,713.6 L181.39,713.6 L181.42,713.6 L181.44,713.6 C181.6,713.6,181.71,713.6,181.71,713.79 C181.71,713.88,181.65,713.91,181.57,713.91 C181.32,713.91,180.71,713.88,180.47,713.88 C180.14,713.88,179.33,713.91,179,713.91 C178.91,713.91,178.79,713.91,178.79,713.71 C178.79,713.6,178.87,713.6,179.13,713.6 C179.36,713.6,179.46,713.6,179.71,713.58 C179.95,713.55,180.02,713.52,180.02,713.38 C180.02,713.32,180,713.25,179.98,713.17 L178.83,708.61 C178.6,707.65,177.92,707.13,177.4,707.13 C177.14,707.13,176.62,707.22,176.46,707.74 C176.49,707.73,176.56,707.73,176.58,707.73 C176.96,707.73,177.22,708.07,177.22,708.37 C177.22,708.68,176.95,708.78,176.79,708.78 C176.61,708.78,176.12,708.66,176.12,707.99 C176.12,707.37,176.65,706.91,177.43,706.91 C178.35,706.91,179.38,707.56,179.63,708.55 Z " /><path
         id="path4644"
         style="stroke-linejoin:miter;letter-spacing:normal;stroke-opacity:1;fill-opacity:1;fill-rule:evenodd;stroke-linecap:butt;stroke-dashoffset:0;text-anchor:start;word-spacing:normal;stroke:#000000;font-stretch:normal;stroke-miterlimit:10.43299961;font-variant:normal;stroke-dasharray:none;font-weight:normal;font-style:normal;fill:black"
         word-spacing="normal"
         stroke-miterlimit="10.433"
         letter-spacing="normal"
         font-weight="normal"
         font-variant="normal"
         font-style="normal"
         font-stretch="normal"
         font-size-adjust="none"
         fill="black"
         stroke-width="0"
         d="M182.32,710.46 L181.27,710.38 V710.13 C181.75,710.13,181.8,710.07,181.8,709.73 V705.63 H182.03 L182.28,706.05 C182.54,705.71,182.92,705.56,183.29,705.56 C184.21,705.56,185,706.25,185,707.13 C185,707.98,184.28,708.7,183.37,708.7 L183.34,708.5 C183.73,708.5,184,708.28,184.14,708.07 C184.28,707.87,184.37,707.6,184.37,707.14 C184.37,706.98,184.37,706.46,184.08,706.13 C183.8,705.82,183.46,705.76,183.26,705.76 C182.7,705.76,182.42,706.19,182.35,706.34 V707.96 C182.54,708.28,182.92,708.5,183.34,708.5 L183.37,708.7 C182.95,708.7,182.57,708.53,182.32,708.28 Z " /></g>  </g>
</svg>
