<?xml version="1.0" encoding="UTF-8" standalone="no"?>
<!-- Created with Inkscape (http://www.inkscape.org/) -->

<svg
   xmlns:ns0="http://www.iki.fi/pav/software/textext/"
   xmlns:dc="http://purl.org/dc/elements/1.1/"
   xmlns:cc="http://creativecommons.org/ns#"
   xmlns:rdf="http://www.w3.org/1999/02/22-rdf-syntax-ns#"
   xmlns:svg="http://www.w3.org/2000/svg"
   xmlns="http://www.w3.org/2000/svg"
   xmlns:sodipodi="http://sodipodi.sourceforge.net/DTD/sodipodi-0.dtd"
   xmlns:inkscape="http://www.inkscape.org/namespaces/inkscape"
   width="210mm"
   height="148mm"
   viewBox="0 0 210 148"
   version="1.1"
   id="svg8"
   inkscape:version="0.92.1 r15371"
   sodipodi:docname="pendulum.svg">
  <sodipodi:namedview
     id="base"
     pagecolor="#ffffff"
     bordercolor="#666666"
     borderopacity="1.0"
     inkscape:pageopacity="0.0"
     inkscape:pageshadow="2"
     inkscape:zoom="1.4"
     inkscape:cx="320.21026"
     inkscape:cy="245.72181"
     inkscape:document-units="mm"
     inkscape:current-layer="layer1"
     showgrid="false"
     showguides="false"
     inkscape:window-width="1920"
     inkscape:window-height="1058"
     inkscape:window-x="-8"
     inkscape:window-y="-8"
     inkscape:window-maximized="1">
    <inkscape:grid
       id="grid4485"
       type="xygrid" />
  </sodipodi:namedview>
  <defs
     id="defs2">
    <marker
       inkscape:isstock="true"
       style="overflow:visible;"
       id="marker8212"
       refX="0.0"
       refY="0.0"
       orient="auto"
       inkscape:stockid="Arrow1Lend">
      <path
         transform="scale(0.8) rotate(180) translate(12.5,0)"
         style="fill-rule:evenodd;stroke:#000000;stroke-width:1pt;stroke-opacity:1;fill:#000000;fill-opacity:1"
         d="M 0.0,0.0 L 5.0,-5.0 L -12.5,0.0 L 5.0,5.0 L 0.0,0.0 z "
         id="path8210" />
    </marker>
    <marker
       inkscape:stockid="Arrow1Lend"
       orient="auto"
       refY="0.0"
       refX="0.0"
       id="marker7065"
       style="overflow:visible;"
       inkscape:isstock="true"
       inkscape:collect="always">
      <path
         id="path7063"
         d="M 0.0,0.0 L 5.0,-5.0 L -12.5,0.0 L 5.0,5.0 L 0.0,0.0 z "
         style="fill-rule:evenodd;stroke:#000000;stroke-width:1pt;stroke-opacity:1;fill:#000000;fill-opacity:1"
         transform="scale(0.8) rotate(180) translate(12.5,0)" />
    </marker>
    <marker
       inkscape:stockid="Arrow1Lend"
       orient="auto"
       refY="0.0"
       refX="0.0"
       id="marker7055"
       style="overflow:visible;"
       inkscape:isstock="true">
      <path
         id="path7053"
         d="M 0.0,0.0 L 5.0,-5.0 L -12.5,0.0 L 5.0,5.0 L 0.0,0.0 z "
         style="fill-rule:evenodd;stroke:#000000;stroke-width:1pt;stroke-opacity:1;fill:#000000;fill-opacity:1"
         transform="scale(0.8) rotate(180) translate(12.5,0)" />
    </marker>
    <marker
       inkscape:isstock="true"
       style="overflow:visible;"
       id="Arrow1Mend"
       refX="0.0"
       refY="0.0"
       orient="auto"
       inkscape:stockid="Arrow1Mend">
      <path
         transform="scale(0.4) rotate(180) translate(10,0)"
         style="fill-rule:evenodd;stroke:#000000;stroke-width:1pt;stroke-opacity:1;fill:#000000;fill-opacity:1"
         d="M 0.0,0.0 L 5.0,-5.0 L -12.5,0.0 L 5.0,5.0 L 0.0,0.0 z "
         id="path4571" />
    </marker>
    <marker
       inkscape:isstock="true"
       style="overflow:visible;"
       id="Arrow1Lend"
       refX="0.0"
       refY="0.0"
       orient="auto"
       inkscape:stockid="Arrow1Lend"
       inkscape:collect="always">
      <path
         transform="scale(0.8) rotate(180) translate(12.5,0)"
         style="fill-rule:evenodd;stroke:#000000;stroke-width:1pt;stroke-opacity:1;fill:#000000;fill-opacity:1"
         d="M 0.0,0.0 L 5.0,-5.0 L -12.5,0.0 L 5.0,5.0 L 0.0,0.0 z "
         id="path4565" />
    </marker>
    <marker
       inkscape:isstock="true"
       style="overflow:visible"
       id="marker4912"
       refX="0.0"
       refY="0.0"
       orient="auto"
       inkscape:stockid="Arrow1Lstart">
      <path
         transform="scale(0.8) translate(12.5,0)"
         style="fill-rule:evenodd;stroke:#000000;stroke-width:1pt;stroke-opacity:1;fill:#000000;fill-opacity:1"
         d="M 0.0,0.0 L 5.0,-5.0 L -12.5,0.0 L 5.0,5.0 L 0.0,0.0 z "
         id="path4910" />
    </marker>
    <marker
       inkscape:collect="always"
       inkscape:stockid="Arrow1Lstart"
       orient="auto"
       refY="0.0"
       refX="0.0"
       id="marker4852"
       style="overflow:visible"
       inkscape:isstock="true">
      <path
         id="path4850"
         d="M 0.0,0.0 L 5.0,-5.0 L -12.5,0.0 L 5.0,5.0 L 0.0,0.0 z "
         style="fill-rule:evenodd;stroke:#000000;stroke-width:1pt;stroke-opacity:1;fill:#000000;fill-opacity:1"
         transform="scale(0.8) translate(12.5,0)" />
    </marker>
    <marker
       inkscape:collect="always"
       inkscape:isstock="true"
       style="overflow:visible"
       id="Arrow1Lstart"
       refX="0.0"
       refY="0.0"
       orient="auto"
       inkscape:stockid="Arrow1Lstart">
      <path
         transform="scale(0.8) translate(12.5,0)"
         style="fill-rule:evenodd;stroke:#000000;stroke-width:1pt;stroke-opacity:1;fill:#000000;fill-opacity:1"
         d="M 0.0,0.0 L 5.0,-5.0 L -12.5,0.0 L 5.0,5.0 L 0.0,0.0 z "
         id="path4562" />
    </marker>
    <marker
       inkscape:isstock="true"
       style="overflow:visible"
       id="marker8212-0"
       refX="0"
       refY="0"
       orient="auto"
       inkscape:stockid="Arrow1Lend">
      <path
         transform="matrix(-0.8,0,0,-0.8,-10,0)"
         style="fill:#000000;fill-opacity:1;fill-rule:evenodd;stroke:#000000;stroke-width:1.00000003pt;stroke-opacity:1"
         d="M 0,0 5,-5 -12.5,0 5,5 Z"
         id="path8210-9"
         inkscape:connector-curvature="0" />
    </marker>
  </defs>
  <metadata
     id="metadata5">
    <rdf:RDF>
      <cc:Work
         rdf:about="">
        <dc:format>image/svg+xml</dc:format>
        <dc:type
           rdf:resource="http://purl.org/dc/dcmitype/StillImage" />
        <dc:title></dc:title>
      </cc:Work>
    </rdf:RDF>
  </metadata>
  <g
     transform="translate(0,-149)"
     id="layer1"
     inkscape:groupmode="layer"
     inkscape:label="Ebene 1">
    <path
       inkscape:connector-curvature="0"
       id="path4487"
       d="M 26.458333,244.13351 H 179.91666"
       style="fill:none;stroke:#000000;stroke-width:0.60000002;stroke-linecap:butt;stroke-linejoin:miter;stroke-miterlimit:4;stroke-dasharray:none;stroke-opacity:1" />
    <path
       sodipodi:nodetypes="cc"
       inkscape:connector-curvature="0"
       id="path4489"
       d="M 105.83333,222.96687 V 151.28766"
       style="fill:none;stroke:#000000;stroke-width:0.26458332;stroke-linecap:butt;stroke-linejoin:miter;stroke-miterlimit:4;stroke-dasharray:1.5874999, 1.5874999;stroke-dashoffset:0;stroke-opacity:1" />
    <rect
       y="207.0921"
       x="71.4375"
       height="31.750008"
       width="68.791656"
       id="rect4491"
       style="fill:none;fill-opacity:1;fill-rule:nonzero;stroke:#000000;stroke-width:0.60000002;stroke-linecap:round;stroke-linejoin:bevel;stroke-miterlimit:4;stroke-dasharray:none;stroke-dashoffset:0;stroke-opacity:1;paint-order:stroke markers fill" />
    <ellipse
       ry="5.1580253"
       rx="5.3316169"
       cy="238.70847"
       cx="82.060783"
       id="path4493"
       style="fill:#ffffff;fill-opacity:1;fill-rule:nonzero;stroke:#000000;stroke-width:0.72589225;stroke-linecap:round;stroke-linejoin:bevel;stroke-miterlimit:4;stroke-dasharray:none;stroke-dashoffset:0;stroke-opacity:1;paint-order:stroke markers fill" />
    <ellipse
       ry="5.1914268"
       rx="5.3316092"
       cy="238.74187"
       cx="129.68578"
       id="path4493-1"
       style="fill:#ffffff;fill-opacity:1;fill-rule:nonzero;stroke:#000000;stroke-width:0.72589225;stroke-linecap:round;stroke-linejoin:bevel;stroke-miterlimit:4;stroke-dasharray:none;stroke-dashoffset:0;stroke-opacity:1;paint-order:stroke markers fill" />
    <ellipse
       ry="5.1580253"
       rx="5.3316169"
       cy="222.83347"
       cx="105.87328"
       id="path4493-3"
       style="fill:none;fill-opacity:1;fill-rule:nonzero;stroke:#000000;stroke-width:0.72589225;stroke-linecap:round;stroke-linejoin:bevel;stroke-miterlimit:4;stroke-dasharray:none;stroke-dashoffset:0;stroke-opacity:1;paint-order:stroke markers fill" />
    <path
       sodipodi:open="true"
       d="M 76.442689,258.91428 A 47.61375,45.423058 0 0 1 60.815942,208.34351 47.61375,45.423058 0 0 1 105.82208,177.74622"
       sodipodi:end="4.712389"
       sodipodi:start="2.2357668"
       sodipodi:ry="45.423058"
       sodipodi:rx="47.61375"
       sodipodi:cy="223.16928"
       sodipodi:cx="105.82208"
       sodipodi:type="arc"
       id="path4536"
       style="fill:none;fill-opacity:1;fill-rule:nonzero;stroke:#000000;stroke-width:0.25;stroke-linecap:round;stroke-linejoin:bevel;stroke-miterlimit:4;stroke-dasharray:none;stroke-dashoffset:0;stroke-opacity:1;marker-start:url(#Arrow1Lstart);paint-order:stroke markers fill" />
    <path
       sodipodi:open="true"
       d="M 71.41231,283.84146 A 71.426414,69.23587 0 0 1 36.639829,205.95134 71.426414,69.23587 0 0 1 105.82225,153.93373"
       sodipodi:end="4.712389"
       sodipodi:start="2.0734512"
       sodipodi:ry="69.23587"
       sodipodi:rx="71.426414"
       sodipodi:cy="223.1696"
       sodipodi:cx="105.82225"
       sodipodi:type="arc"
       id="path4536-8"
       style="fill:none;fill-opacity:1;fill-rule:nonzero;stroke:#000000;stroke-width:0.25;stroke-linecap:round;stroke-linejoin:bevel;stroke-miterlimit:4;stroke-dasharray:none;stroke-dashoffset:0;stroke-opacity:1;marker-start:url(#marker4852);paint-order:stroke markers fill" />
    <path
       inkscape:connector-curvature="0"
       id="path4902"
       d="m 163.82947,257.56708 v 23.81251"
       style="fill:none;stroke:#000000;stroke-width:0.60000002;stroke-linecap:butt;stroke-linejoin:miter;stroke-miterlimit:4;stroke-dasharray:none;stroke-opacity:1;marker-end:url(#Arrow1Mend)" />
    <g
       transform="rotate(60.983488,98.10631,218.41684)"
       id="g5142">
      <path
         sodipodi:nodetypes="ccc"
         style="fill:none;stroke:#000000;stroke-width:0.60000002;stroke-linecap:butt;stroke-linejoin:miter;stroke-miterlimit:4;stroke-dasharray:none;stroke-opacity:1"
         d="m 125.03285,259.83627 -19.19952,-45.96951 38.32747,60.06532"
         id="path4534"
         inkscape:connector-curvature="0" />
      <rect
         style="fill:none;fill-opacity:1;fill-rule:nonzero;stroke:#000000;stroke-width:0.60000002;stroke-linecap:round;stroke-linejoin:bevel;stroke-miterlimit:4;stroke-dasharray:none;stroke-dashoffset:0;stroke-opacity:1;paint-order:stroke markers fill"
         id="rect5026"
         width="5.2916665"
         height="7.9374957"
         x="9.5773516"
         y="288.31689"
         transform="rotate(-23.243149)" />
      <rect
         style="fill:none;fill-opacity:1;fill-rule:nonzero;stroke:#000000;stroke-width:0.60000002;stroke-linecap:round;stroke-linejoin:bevel;stroke-miterlimit:4;stroke-dasharray:none;stroke-dashoffset:0;stroke-opacity:1;paint-order:stroke markers fill"
         id="rect5026-5"
         width="5.2916665"
         height="7.9374957"
         x="-31.228397"
         y="308.49228"
         transform="rotate(-33.050516)" />
    </g>
    <g
       ns0:preamble="C:\\Users\\Jonas\\AppData\\Roaming\\inkscape\\extensions\\default_packages.tex"
       ns0:text="$g$"
       word-spacing="normal"
       letter-spacing="normal"
       font-size-adjust="none"
       font-stretch="normal"
       font-weight="normal"
       font-variant="normal"
       font-style="normal"
       stroke-miterlimit="10.433"
       xml:space="preserve"
       transform="matrix(0.8,0,0,-0.8,50.23097,836.95626)"
       id="content"
       style="font-style:normal;font-variant:normal;font-weight:normal;font-stretch:normal;letter-spacing:normal;word-spacing:normal;text-anchor:start;fill:#000000;fill-opacity:1;fill-rule:evenodd;stroke:#000000;stroke-linecap:butt;stroke-linejoin:miter;stroke-miterlimit:10.43299961;stroke-dasharray:none;stroke-dashoffset:0;stroke-opacity:1"><path
         id="path6643"
         d="m 153.4,710.87 v 0.01 0.01 0.01 l 0.01,0.01 v 0.02 0.02 l 0.01,0.01 v 0.01 0.01 0.01 0.01 l 0.01,0.01 v 0.01 0 0.01 0.01 0 0.01 c 0,0.17 -0.12,0.27 -0.29,0.27 -0.1,0 -0.37,-0.07 -0.41,-0.43 -0.18,0.37 -0.53,0.63 -0.92,0.63 l 0.01,-0.22 c 0.65,0 0.79,-0.81 0.79,-0.86 0,-0.05 -0.02,-0.11 -0.03,-0.15 l -0.48,-1.89 c -0.06,-0.26 -0.28,-0.51 -0.5,-0.7 -0.21,-0.18 -0.52,-0.36 -0.81,-0.36 -0.5,0 -0.64,0.52 -0.64,0.92 0,0.47 0.28,1.65 0.55,2.15 0.27,0.49 0.7,0.89 1.12,0.89 l -0.01,0.22 c -1.14,0 -2.37,-1.39 -2.37,-2.83 0,-0.98 0.6,-1.56 1.32,-1.56 0.59,0 1.06,0.46 1.16,0.57 l 0.01,-0.01 c -0.21,-0.88 -0.33,-1.29 -0.33,-1.31 -0.04,-0.09 -0.38,-1.07 -1.44,-1.07 -0.18,0 -0.51,0.01 -0.79,0.1 0.3,0.09 0.41,0.34 0.41,0.51 0,0.16 -0.11,0.35 -0.38,0.35 -0.22,0 -0.54,-0.18 -0.54,-0.58 0,-0.4 0.37,-0.6 1.32,-0.6 1.25,0 1.96,0.77 2.11,1.37 z"
         inkscape:connector-curvature="0"
         style="fill:#000000;stroke-width:0" /></g>    <g
       id="g6738"
       transform="matrix(0.8,0,0,-0.8,-82.942666,789.557)"
       xml:space="preserve"
       stroke-miterlimit="10.433"
       font-style="normal"
       font-variant="normal"
       font-weight="normal"
       font-stretch="normal"
       font-size-adjust="none"
       letter-spacing="normal"
       word-spacing="normal"
       ns0:text="$\\varphi_1$"
       ns0:preamble="C:\\Users\\Jonas\\AppData\\Roaming\\inkscape\\extensions\\default_packages.tex"
       style="font-style:normal;font-variant:normal;font-weight:normal;font-stretch:normal;letter-spacing:normal;word-spacing:normal;text-anchor:start;fill:#000000;fill-opacity:1;fill-rule:evenodd;stroke:#000000;stroke-linecap:butt;stroke-linejoin:miter;stroke-miterlimit:10.43299961;stroke-dasharray:none;stroke-dashoffset:0;stroke-opacity:1"><path
         d="m 150.4,705.44 v -0.01 -0.01 0 -0.01 l -0.01,-0.01 v -0.01 -0.01 l -0.01,-0.01 v 0 -0.01 -0.01 l -0.01,-0.01 v 0 -0.01 -0.01 0 -0.01 h -0.01 v -0.01 0 -0.01 0 -0.01 0 -0.01 -0.01 h -0.01 v -0.01 -0.01 0 c 0,-0.22 0.19,-0.28 0.29,-0.28 0.05,0 0.27,0.03 0.37,0.26 0.03,0.08 0.08,0.41 0.35,1.82 0.09,-0.01 0.16,-0.02 0.33,-0.02 1.65,0 3.18,1.56 3.18,3.13 l -0.28,-0.22 c 0,-1.13 -1.28,-2.34 -2.81,-2.34 v 0 c -0.08,0 -0.1,0 -0.18,0.01 -0.12,0 -0.13,0.01 -0.13,0.04 0,0.02 0.17,0.93 0.2,1.07 0.31,1.28 1.08,2.23 1.97,2.23 0.68,0 0.95,-0.54 0.95,-1.01 l 0.28,0.22 c 0,0.77 -0.39,1.37 -1.13,1.37 -1.45,0 -2.04,-1.93 -2.64,-3.87 -1.08,0.2 -1.63,0.76 -1.63,1.47 0,0.28 0.23,1.37 0.82,2.06 0.08,0.09 0.08,0.11 0.08,0.13 0,0.04 -0.02,0.1 -0.12,0.1 -0.27,0 -1.04,-1.44 -1.04,-2.4 0,-0.93 0.66,-1.66 1.72,-1.91 z"
         font-size-adjust="none"
         font-stretch="normal"
         font-style="normal"
         font-variant="normal"
         font-weight="normal"
         letter-spacing="normal"
         stroke-miterlimit="10.433"
         word-spacing="normal"
         style="font-style:normal;font-variant:normal;font-weight:normal;font-stretch:normal;letter-spacing:normal;word-spacing:normal;text-anchor:start;fill:#000000;fill-opacity:1;fill-rule:evenodd;stroke:#000000;stroke-width:0;stroke-linecap:butt;stroke-linejoin:miter;stroke-miterlimit:10.43299961;stroke-dasharray:none;stroke-dashoffset:0;stroke-opacity:1"
         id="path6734"
         inkscape:connector-curvature="0" /><path
         d="m 157.56,710.05 v 0.01 0.01 0.01 0.01 0 0.01 0.01 0.01 0 0.01 0.01 0 0.01 0 0.01 0 0.01 0 l -0.01,0.01 v 0.01 0.01 h -0.01 v 0.01 0.01 h -0.01 v 0.01 h -0.01 -0.01 v 0.01 h -0.01 -0.01 -0.01 -0.01 v 0 h -0.01 v 0.01 h -0.01 v 0 h -0.01 -0.01 v 0 h -0.01 -0.01 -0.01 v 0 h -0.01 -0.01 -0.01 -0.01 -0.01 c -0.44,-0.44 -1.08,-0.45 -1.36,-0.45 v -0.25 c 0.17,0 0.63,0 1.01,0.2 v -3.55 c 0,-0.23 0,-0.32 -0.7,-0.32 h -0.26 v -0.25 c 0.12,0.01 0.98,0.03 1.24,0.03 0.21,0 1.09,-0.02 1.24,-0.03 v 0.25 h -0.26 c -0.7,0 -0.7,0.09 -0.7,0.32 z"
         font-size-adjust="none"
         font-stretch="normal"
         font-style="normal"
         font-variant="normal"
         font-weight="normal"
         letter-spacing="normal"
         stroke-miterlimit="10.433"
         word-spacing="normal"
         style="font-style:normal;font-variant:normal;font-weight:normal;font-stretch:normal;letter-spacing:normal;word-spacing:normal;text-anchor:start;fill:#000000;fill-opacity:1;fill-rule:evenodd;stroke:#000000;stroke-width:0;stroke-linecap:butt;stroke-linejoin:miter;stroke-miterlimit:10.43299961;stroke-dasharray:none;stroke-dashoffset:0;stroke-opacity:1"
         id="path6736"
         inkscape:connector-curvature="0" /></g>    <g
       style="font-style:normal;font-variant:normal;font-weight:normal;font-stretch:normal;letter-spacing:normal;word-spacing:normal;text-anchor:start;fill:#000000;fill-opacity:1;fill-rule:evenodd;stroke:#000000;stroke-linecap:butt;stroke-linejoin:miter;stroke-miterlimit:10.43299961;stroke-dasharray:none;stroke-dashoffset:0;stroke-opacity:1"
       ns0:preamble="C:\\Users\\Jonas\\AppData\\Roaming\\inkscape\\extensions\\default_packages.tex"
       ns0:text="$\\varphi_2$"
       word-spacing="normal"
       letter-spacing="normal"
       font-size-adjust="none"
       font-stretch="normal"
       font-weight="normal"
       font-variant="normal"
       font-style="normal"
       stroke-miterlimit="10.433"
       xml:space="preserve"
       transform="matrix(0.8,0,0,-0.8,-58.98,789.557)"
       id="g6812"><path
         id="path6808"
         style="font-style:normal;font-variant:normal;font-weight:normal;font-stretch:normal;letter-spacing:normal;word-spacing:normal;text-anchor:start;fill:#000000;fill-opacity:1;fill-rule:evenodd;stroke:#000000;stroke-width:0;stroke-linecap:butt;stroke-linejoin:miter;stroke-miterlimit:10.43299961;stroke-dasharray:none;stroke-dashoffset:0;stroke-opacity:1"
         word-spacing="normal"
         stroke-miterlimit="10.433"
         letter-spacing="normal"
         font-weight="normal"
         font-variant="normal"
         font-style="normal"
         font-stretch="normal"
         font-size-adjust="none"
         d="m 150.4,705.44 v -0.01 -0.01 0 -0.01 l -0.01,-0.01 v -0.01 -0.01 l -0.01,-0.01 v 0 -0.01 -0.01 l -0.01,-0.01 v 0 -0.01 -0.01 0 -0.01 h -0.01 v -0.01 0 -0.01 0 -0.01 0 -0.01 -0.01 h -0.01 v -0.01 -0.01 0 c 0,-0.22 0.19,-0.28 0.29,-0.28 0.05,0 0.27,0.03 0.37,0.26 0.03,0.08 0.08,0.41 0.35,1.82 0.09,-0.01 0.16,-0.02 0.33,-0.02 1.65,0 3.18,1.56 3.18,3.13 l -0.28,-0.22 c 0,-1.13 -1.28,-2.34 -2.81,-2.34 v 0 c -0.08,0 -0.1,0 -0.18,0.01 -0.12,0 -0.13,0.01 -0.13,0.04 0,0.02 0.17,0.93 0.2,1.07 0.31,1.28 1.08,2.23 1.97,2.23 0.68,0 0.95,-0.54 0.95,-1.01 l 0.28,0.22 c 0,0.77 -0.39,1.37 -1.13,1.37 -1.45,0 -2.04,-1.93 -2.64,-3.87 -1.08,0.2 -1.63,0.76 -1.63,1.47 0,0.28 0.23,1.37 0.82,2.06 0.08,0.09 0.08,0.11 0.08,0.13 0,0.04 -0.02,0.1 -0.12,0.1 -0.27,0 -1.04,-1.44 -1.04,-2.4 0,-0.93 0.66,-1.66 1.72,-1.91 z"
         inkscape:connector-curvature="0" /><path
         id="path6810"
         style="font-style:normal;font-variant:normal;font-weight:normal;font-stretch:normal;letter-spacing:normal;word-spacing:normal;text-anchor:start;fill:#000000;fill-opacity:1;fill-rule:evenodd;stroke:#000000;stroke-width:0;stroke-linecap:butt;stroke-linejoin:miter;stroke-miterlimit:10.43299961;stroke-dasharray:none;stroke-dashoffset:0;stroke-opacity:1"
         word-spacing="normal"
         stroke-miterlimit="10.433"
         letter-spacing="normal"
         font-weight="normal"
         font-variant="normal"
         font-style="normal"
         font-stretch="normal"
         font-size-adjust="none"
         d="m 158.75,706.9 h -0.24 c -0.02,-0.16 -0.09,-0.57 -0.18,-0.64 -0.06,-0.04 -0.59,-0.04 -0.69,-0.04 h -1.28 c 0.73,0.65 0.97,0.84 1.39,1.17 0.52,0.41 1,0.84 1,1.5 0,0.84 -0.74,1.36 -1.63,1.36 -0.87,0 -1.45,-0.61 -1.45,-1.25 0,-0.35 0.3,-0.39 0.37,-0.39 0.17,0 0.37,0.12 0.37,0.37 0,0.13 -0.05,0.37 -0.41,0.37 0.21,0.49 0.69,0.65 1.01,0.65 0.7,0 1.06,-0.54 1.06,-1.11 0,-0.6 -0.43,-1.08 -0.65,-1.33 l -1.68,-1.66 c -0.07,-0.06 -0.07,-0.07 -0.07,-0.27 h 2.87 z"
         inkscape:connector-curvature="0" /></g>    <path
       style="fill:none;stroke:#000000;stroke-width:0.26458332px;stroke-linecap:butt;stroke-linejoin:miter;stroke-opacity:1;marker-end:url(#Arrow1Lend)"
       d="m 105.83333,191.16666 h 39.6875"
       id="path6851"
       inkscape:connector-curvature="0" />
    <g
       style="font-style:normal;font-variant:normal;font-weight:normal;font-stretch:normal;letter-spacing:normal;word-spacing:normal;text-anchor:start;fill:#000000;fill-opacity:1;fill-rule:evenodd;stroke:#000000;stroke-linecap:butt;stroke-linejoin:miter;stroke-miterlimit:10.43299961;stroke-dasharray:none;stroke-dashoffset:0;stroke-opacity:1"
       ns0:preamble="C:\\Users\\Jonas\\AppData\\Roaming\\inkscape\\extensions\\default_packages.tex"
       ns0:text="$s$"
       word-spacing="normal"
       letter-spacing="normal"
       font-size-adjust="none"
       font-stretch="normal"
       font-weight="normal"
       font-variant="normal"
       font-style="normal"
       stroke-miterlimit="10.433"
       xml:space="preserve"
       transform="matrix(0.8,0,0,-0.8,3.8740004,754.10699)"
       id="g7001"><path
         id="path6999"
         style="font-style:normal;font-variant:normal;font-weight:normal;font-stretch:normal;letter-spacing:normal;word-spacing:normal;text-anchor:start;fill:#000000;fill-opacity:1;fill-rule:evenodd;stroke:#000000;stroke-width:0;stroke-linecap:butt;stroke-linejoin:miter;stroke-miterlimit:10.43299961;stroke-dasharray:none;stroke-dashoffset:0;stroke-opacity:1"
         word-spacing="normal"
         stroke-miterlimit="10.433"
         letter-spacing="normal"
         font-weight="normal"
         font-variant="normal"
         font-style="normal"
         font-stretch="normal"
         font-size-adjust="none"
         d="m 152.6,710.84 h -0.02 -0.03 l -0.02,-0.01 h -0.03 l -0.02,-0.01 -0.03,-0.01 h -0.02 l -0.02,-0.01 -0.02,-0.01 -0.02,-0.01 -0.02,-0.02 -0.02,-0.01 -0.02,-0.01 -0.02,-0.02 -0.01,-0.01 -0.02,-0.02 -0.02,-0.01 -0.01,-0.02 -0.01,-0.01 -0.02,-0.02 -0.01,-0.02 -0.01,-0.02 -0.01,-0.02 -0.01,-0.02 -0.01,-0.02 v -0.02 l -0.01,-0.02 -0.01,-0.02 v -0.02 -0.02 -0.02 -0.02 c 0,-0.14 0.08,-0.29 0.3,-0.29 0.22,0 0.46,0.17 0.46,0.56 0,0.45 -0.43,0.86 -1.18,0.86 -1.32,0 -1.69,-1.02 -1.69,-1.45 0,-0.78 0.74,-0.93 1.03,-0.99 0.52,-0.1 1.04,-0.21 1.04,-0.75 0,-0.26 -0.23,-1.1 -1.43,-1.1 -0.14,0 -0.9,0 -1.13,0.53 0.38,-0.05 0.62,0.25 0.62,0.53 0,0.23 -0.16,0.35 -0.36,0.35 -0.26,0 -0.56,-0.21 -0.56,-0.66 0,-0.57 0.57,-0.96 1.42,-0.96 1.61,0 2,1.2 2,1.64 0,0.36 -0.19,0.61 -0.31,0.73 -0.27,0.28 -0.55,0.33 -0.99,0.42 -0.36,0.08 -0.76,0.15 -0.76,0.59 0,0.29 0.24,0.9 1.12,0.9 0.25,0 0.74,-0.07 0.89,-0.46 z"
         inkscape:connector-curvature="0" /></g>    <path
       style="fill:none;stroke:#000000;stroke-width:0.26458332px;stroke-linecap:butt;stroke-linejoin:miter;stroke-opacity:1;marker-end:url(#marker7065)"
       d="m 140.22916,217.62499 h 37.04167"
       id="path7043"
       inkscape:connector-curvature="0" />
    <path
       style="fill:none;stroke:#000000;stroke-width:0.26458332px;stroke-linecap:butt;stroke-linejoin:miter;stroke-opacity:1;marker-end:url(#marker7055)"
       d="M 177.27083,228.20833 H 140.22916"
       id="path7045"
       inkscape:connector-curvature="0" />
    <path
       d="m 99.012384,231.45796 a 10.572166,10.835969 0 0 1 -3.18339,-11.82545 10.572166,10.835969 0 0 1 9.624206,-7.29258"
       sodipodi:end="4.6774824"
       sodipodi:start="2.2706734"
       sodipodi:ry="10.835969"
       sodipodi:rx="10.572166"
       sodipodi:cy="223.1693"
       sodipodi:cx="105.82217"
       sodipodi:type="arc"
       id="path4536-9"
       style="fill:none;fill-opacity:1;fill-rule:nonzero;stroke:#000000;stroke-width:0.25;stroke-linecap:round;stroke-linejoin:bevel;stroke-miterlimit:4;stroke-dasharray:none;stroke-dashoffset:0;stroke-opacity:1;marker-end:url(#marker8212);paint-order:stroke markers fill"
       sodipodi:open="true" />
    <path
       d="M 99.192966,234.83287 A 13.217534,13.48168 0 0 1 92.99958,219.89625 13.217534,13.48168 0 0 1 105.36042,209.69571"
       sodipodi:end="4.6774824"
       sodipodi:start="2.0961404"
       sodipodi:ry="13.48168"
       sodipodi:rx="13.217534"
       sodipodi:cy="223.16917"
       sodipodi:cx="105.8217"
       sodipodi:type="arc"
       id="path4536-9-8"
       style="fill:none;fill-opacity:1;fill-rule:nonzero;stroke:#000000;stroke-width:0.25;stroke-linecap:round;stroke-linejoin:bevel;stroke-miterlimit:4;stroke-dasharray:none;stroke-dashoffset:0;stroke-opacity:1;marker-end:url(#marker8212-0);paint-order:stroke markers fill"
       sodipodi:open="true" />
    <g
       id="g9099"
       transform="matrix(0.8,0,0,-0.8,-28.748583,775.41483)"
       xml:space="preserve"
       stroke-miterlimit="10.433"
       font-style="normal"
       font-variant="normal"
       font-weight="normal"
       font-stretch="normal"
       font-size-adjust="none"
       letter-spacing="normal"
       word-spacing="normal"
       ns0:text="$\\\\\nM_{1r}\\\\\nM_{2r}$"
       ns0:preamble="C:\\Users\\Jonas\\AppData\\Roaming\\inkscape\\extensions\\default_packages.tex"
       style="font-style:normal;font-variant:normal;font-weight:normal;font-stretch:normal;letter-spacing:normal;word-spacing:normal;text-anchor:start;fill:#000000;fill-opacity:1;fill-rule:evenodd;stroke:#000000;stroke-linecap:butt;stroke-linejoin:miter;stroke-miterlimit:10.43299961;stroke-dasharray:none;stroke-dashoffset:0;stroke-opacity:1"><path
         inkscape:connector-curvature="0"
         d="m 142.98,701.19 0.01,0.03 0.01,0.03 v 0.03 l 0.01,0.03 0.01,0.03 0.01,0.03 0.01,0.02 0.01,0.02 0.01,0.02 0.01,0.02 0.01,0.02 0.01,0.02 0.02,0.02 0.01,0.01 0.02,0.02 0.02,0.01 0.02,0.02 0.03,0.01 0.02,0.01 0.03,0.01 0.03,0.01 h 0.02 0.02 l 0.01,0.01 h 0.02 0.02 l 0.02,0.01 h 0.02 0.02 0.03 l 0.02,0.01 h 0.02 0.03 0.02 0.03 0.03 0.03 l 0.02,0.01 h 0.04 0.03 0.03 0.03 0.04 c 0.23,0 0.31,0 0.31,0.2 0,0.11 -0.1,0.11 -0.26,0.11 h -1.32 c -0.26,0 -0.27,0 -0.39,-0.19 l -3.63,-5.67 -0.77,5.63 c -0.03,0.23 -0.05,0.23 -0.31,0.23 h -1.36 c -0.19,0 -0.3,0 -0.3,-0.19 0,-0.12 0.09,-0.12 0.29,-0.12 0.13,0 0.3,-0.01 0.42,-0.02 0.16,-0.02 0.22,-0.05 0.22,-0.16 0,-0.04 -0.01,-0.07 -0.04,-0.19 l -1.26,-5.06 c -0.1,-0.39 -0.27,-0.71 -1.07,-0.74 -0.05,0 -0.18,-0.01 -0.18,-0.19 0,-0.09 0.06,-0.12 0.13,-0.12 0.32,0 0.67,0.03 1,0.03 0.34,0 0.7,-0.03 1.03,-0.03 0.05,0 0.17,0 0.17,0.2 0,0.11 -0.11,0.11 -0.17,0.11 -0.57,0.01 -0.68,0.21 -0.68,0.43 0,0.07 0.01,0.12 0.04,0.23 l 1.35,5.42 h 0.01 l 0.86,-6.16 c 0.02,-0.12 0.03,-0.23 0.15,-0.23 0.11,0 0.16,0.11 0.21,0.18 l 4.02,6.29 h 0.01 l -1.42,-5.69 c -0.1,-0.39 -0.12,-0.47 -0.9,-0.47 -0.17,0 -0.28,0 -0.28,-0.19 0,-0.12 0.12,-0.12 0.15,-0.12 0.28,0 0.95,0.03 1.23,0.03 0.41,0 0.84,-0.03 1.24,-0.03 0.06,0 0.19,0 0.19,0.2 0,0.11 -0.09,0.11 -0.27,0.11 -0.37,0 -0.65,0 -0.65,0.18 0,0.04 0,0.06 0.05,0.24 z"
         font-size-adjust="none"
         font-stretch="normal"
         font-style="normal"
         font-variant="normal"
         font-weight="normal"
         letter-spacing="normal"
         stroke-miterlimit="10.433"
         word-spacing="normal"
         style="font-style:normal;font-variant:normal;font-weight:normal;font-stretch:normal;letter-spacing:normal;word-spacing:normal;text-anchor:start;fill:#000000;fill-opacity:1;fill-rule:evenodd;stroke:#000000;stroke-width:0;stroke-linecap:butt;stroke-linejoin:miter;stroke-miterlimit:10.43299961;stroke-dasharray:none;stroke-dashoffset:0;stroke-opacity:1"
         id="path9087" /><path
         inkscape:connector-curvature="0"
         d="m 145.77,698.1 v 0.01 0.01 0 0.01 0.01 0.01 0 0.01 0.01 0 l -0.01,0.01 v 0.01 0 0.01 0 0.01 0 0.01 0.01 0.01 h -0.01 v 0.01 l -0.01,0.01 v 0 0.01 h -0.01 -0.01 v 0.01 h -0.01 -0.01 l -0.01,0.01 h -0.01 v 0 h -0.01 v 0 h -0.01 v 0 h -0.01 -0.01 v 0 h -0.01 -0.01 v 0 h -0.01 -0.01 -0.01 -0.01 v 0 h -0.01 -0.01 c -0.45,-0.44 -1.08,-0.44 -1.37,-0.44 v -0.25 c 0.17,0 0.63,0 1.01,0.19 v -3.54 c 0,-0.23 0,-0.32 -0.69,-0.32 h -0.27 v -0.25 c 0.13,0 0.98,0.02 1.24,0.02 0.22,0 1.09,-0.02 1.25,-0.02 v 0.25 h -0.27 c -0.69,0 -0.69,0.09 -0.69,0.32 z"
         font-size-adjust="none"
         font-stretch="normal"
         font-style="normal"
         font-variant="normal"
         font-weight="normal"
         letter-spacing="normal"
         stroke-miterlimit="10.433"
         word-spacing="normal"
         style="font-style:normal;font-variant:normal;font-weight:normal;font-stretch:normal;letter-spacing:normal;word-spacing:normal;text-anchor:start;fill:#000000;fill-opacity:1;fill-rule:evenodd;stroke:#000000;stroke-width:0;stroke-linecap:butt;stroke-linejoin:miter;stroke-miterlimit:10.43299961;stroke-dasharray:none;stroke-dashoffset:0;stroke-opacity:1"
         id="path9089" /><path
         inkscape:connector-curvature="0"
         d="m 149.04,695.08 v 0 0.01 0 l 0.01,0.01 v 0 0.01 0 0.01 0.01 l 0.01,0.01 v 0.01 0.01 0.01 l 0.01,0.01 v 0.02 l 0.01,0.03 v 0.02 l 0.01,0.03 0.01,0.03 0.01,0.03 v 0.03 l 0.02,0.06 0.02,0.07 v 0.03 l 0.01,0.03 0.01,0.03 0.01,0.02 v 0.03 l 0.01,0.02 0.01,0.03 v 0.01 0.01 0.01 l 0.01,0.01 v 0.01 0 0.01 l 0.01,0.01 v 0 0.01 0 0.01 0 0 c 0.02,0.06 0.22,0.41 0.44,0.57 0.08,0.06 0.27,0.2 0.57,0.2 0.06,0 0.24,-0.01 0.38,-0.1 -0.22,-0.06 -0.31,-0.26 -0.31,-0.38 0,-0.16 0.12,-0.26 0.28,-0.26 0.16,0 0.39,0.13 0.39,0.42 0,0.37 -0.38,0.51 -0.74,0.51 -0.36,0 -0.67,-0.14 -0.98,-0.49 -0.12,0.42 -0.55,0.49 -0.72,0.49 -0.25,0 -0.43,-0.16 -0.54,-0.35 -0.16,-0.27 -0.26,-0.68 -0.26,-0.71 0,-0.09 0.1,-0.09 0.12,-0.09 0.1,0 0.11,0.02 0.15,0.21 0.11,0.42 0.24,0.75 0.51,0.75 0.18,0 0.23,-0.15 0.23,-0.34 0,-0.13 -0.06,-0.39 -0.11,-0.58 -0.05,-0.19 -0.12,-0.47 -0.15,-0.63 l -0.22,-0.89 c -0.03,-0.09 -0.08,-0.26 -0.08,-0.28 0,-0.15 0.13,-0.22 0.24,-0.22 0.11,0 0.25,0.06 0.3,0.2 0.02,0.04 0.09,0.35 0.13,0.52 z"
         font-size-adjust="none"
         font-stretch="normal"
         font-style="normal"
         font-variant="normal"
         font-weight="normal"
         letter-spacing="normal"
         stroke-miterlimit="10.433"
         word-spacing="normal"
         style="font-style:normal;font-variant:normal;font-weight:normal;font-stretch:normal;letter-spacing:normal;word-spacing:normal;text-anchor:start;fill:#000000;fill-opacity:1;fill-rule:evenodd;stroke:#000000;stroke-width:0;stroke-linecap:butt;stroke-linejoin:miter;stroke-miterlimit:10.43299961;stroke-dasharray:none;stroke-dashoffset:0;stroke-opacity:1"
         id="path9091" /><path
         inkscape:connector-curvature="0"
         d="m 142.98,689.23 0.01,0.04 0.01,0.03 v 0.03 l 0.01,0.03 0.01,0.02 0.01,0.03 0.01,0.02 0.01,0.03 0.01,0.02 0.01,0.02 0.01,0.02 0.01,0.02 0.02,0.01 0.01,0.02 0.02,0.01 0.02,0.02 0.02,0.01 0.03,0.01 0.02,0.01 0.03,0.01 0.03,0.01 h 0.02 l 0.02,0.01 h 0.01 0.02 l 0.02,0.01 h 0.02 0.02 l 0.02,0.01 h 0.03 0.02 0.02 0.03 l 0.02,0.01 h 0.03 0.03 0.03 0.02 0.04 0.03 0.03 0.03 0.04 c 0.23,0 0.31,0 0.31,0.2 0,0.11 -0.1,0.11 -0.26,0.11 h -1.32 c -0.26,0 -0.27,0 -0.39,-0.19 l -3.63,-5.66 -0.77,5.62 c -0.03,0.23 -0.05,0.23 -0.31,0.23 h -1.36 c -0.19,0 -0.3,0 -0.3,-0.19 0,-0.12 0.09,-0.12 0.29,-0.12 0.13,0 0.3,-0.01 0.42,-0.02 0.16,-0.02 0.22,-0.05 0.22,-0.16 0,-0.04 -0.01,-0.07 -0.04,-0.19 l -1.26,-5.05 c -0.1,-0.4 -0.27,-0.72 -1.07,-0.75 -0.05,0 -0.18,-0.01 -0.18,-0.19 0,-0.09 0.06,-0.11 0.13,-0.11 0.32,0 0.67,0.02 1,0.02 0.34,0 0.7,-0.02 1.03,-0.02 0.05,0 0.17,0 0.17,0.19 0,0.11 -0.11,0.11 -0.17,0.11 -0.57,0.01 -0.68,0.21 -0.68,0.44 0,0.07 0.01,0.12 0.04,0.23 l 1.35,5.41 h 0.01 l 0.86,-6.16 c 0.02,-0.12 0.03,-0.22 0.15,-0.22 0.11,0 0.16,0.1 0.21,0.17 l 4.02,6.29 h 0.01 l -1.42,-5.69 c -0.1,-0.39 -0.12,-0.47 -0.9,-0.47 -0.17,0 -0.28,0 -0.28,-0.19 0,-0.11 0.12,-0.11 0.15,-0.11 0.28,0 0.95,0.02 1.23,0.02 0.41,0 0.84,-0.02 1.24,-0.02 0.06,0 0.19,0 0.19,0.19 0,0.11 -0.09,0.11 -0.27,0.11 -0.37,0 -0.65,0 -0.65,0.18 0,0.04 0,0.06 0.05,0.24 z"
         font-size-adjust="none"
         font-stretch="normal"
         font-style="normal"
         font-variant="normal"
         font-weight="normal"
         letter-spacing="normal"
         stroke-miterlimit="10.433"
         word-spacing="normal"
         style="font-style:normal;font-variant:normal;font-weight:normal;font-stretch:normal;letter-spacing:normal;word-spacing:normal;text-anchor:start;fill:#000000;fill-opacity:1;fill-rule:evenodd;stroke:#000000;stroke-width:0;stroke-linecap:butt;stroke-linejoin:miter;stroke-miterlimit:10.43299961;stroke-dasharray:none;stroke-dashoffset:0;stroke-opacity:1"
         id="path9093" /><path
         inkscape:connector-curvature="0"
         d="m 146.95,682.99 h -0.24 c -0.02,-0.16 -0.09,-0.57 -0.18,-0.64 -0.05,-0.04 -0.59,-0.04 -0.69,-0.04 h -1.28 c 0.73,0.65 0.98,0.84 1.4,1.17 0.51,0.41 0.99,0.84 0.99,1.5 0,0.84 -0.74,1.36 -1.63,1.36 -0.86,0 -1.45,-0.61 -1.45,-1.25 0,-0.35 0.3,-0.39 0.37,-0.39 0.17,0 0.37,0.12 0.37,0.37 0,0.13 -0.05,0.37 -0.41,0.37 0.22,0.49 0.69,0.65 1.02,0.65 0.69,0 1.05,-0.55 1.05,-1.11 0,-0.6 -0.43,-1.08 -0.65,-1.33 l -1.68,-1.66 c -0.07,-0.06 -0.07,-0.08 -0.07,-0.27 h 2.87 z"
         font-size-adjust="none"
         font-stretch="normal"
         font-style="normal"
         font-variant="normal"
         font-weight="normal"
         letter-spacing="normal"
         stroke-miterlimit="10.433"
         word-spacing="normal"
         style="font-style:normal;font-variant:normal;font-weight:normal;font-stretch:normal;letter-spacing:normal;word-spacing:normal;text-anchor:start;fill:#000000;fill-opacity:1;fill-rule:evenodd;stroke:#000000;stroke-width:0;stroke-linecap:butt;stroke-linejoin:miter;stroke-miterlimit:10.43299961;stroke-dasharray:none;stroke-dashoffset:0;stroke-opacity:1"
         id="path9095" /><path
         inkscape:connector-curvature="0"
         d="m 149.04,683.13 v 0 0 0 l 0.01,0.01 v 0 0.01 0.01 0.01 0 l 0.01,0.01 v 0.01 0.01 0.01 l 0.01,0.01 v 0.03 l 0.01,0.02 v 0.03 l 0.01,0.03 0.01,0.03 0.01,0.03 v 0.03 l 0.02,0.06 0.02,0.06 v 0.03 l 0.01,0.03 0.01,0.03 0.01,0.03 v 0.02 l 0.01,0.03 0.01,0.02 v 0.01 0.01 0.01 l 0.01,0.01 v 0.01 0.01 0.01 h 0.01 v 0.01 0 0.01 0 0 0.01 c 0.02,0.05 0.22,0.4 0.44,0.57 0.08,0.05 0.27,0.19 0.57,0.19 0.06,0 0.24,0 0.38,-0.1 -0.22,-0.06 -0.31,-0.25 -0.31,-0.38 0,-0.15 0.12,-0.26 0.28,-0.26 0.16,0 0.39,0.14 0.39,0.43 0,0.36 -0.38,0.51 -0.74,0.51 -0.36,0 -0.67,-0.15 -0.98,-0.5 -0.12,0.43 -0.55,0.5 -0.72,0.5 -0.25,0 -0.43,-0.16 -0.54,-0.36 -0.16,-0.27 -0.26,-0.67 -0.26,-0.71 0,-0.09 0.1,-0.09 0.12,-0.09 0.1,0 0.11,0.02 0.15,0.21 0.11,0.43 0.24,0.75 0.51,0.75 0.18,0 0.23,-0.15 0.23,-0.34 0,-0.13 -0.06,-0.39 -0.11,-0.58 -0.05,-0.18 -0.12,-0.47 -0.15,-0.62 l -0.22,-0.89 c -0.03,-0.09 -0.08,-0.27 -0.08,-0.29 0,-0.15 0.13,-0.22 0.24,-0.22 0.11,0 0.25,0.06 0.3,0.2 0.02,0.04 0.09,0.35 0.13,0.52 z"
         font-size-adjust="none"
         font-stretch="normal"
         font-style="normal"
         font-variant="normal"
         font-weight="normal"
         letter-spacing="normal"
         stroke-miterlimit="10.433"
         word-spacing="normal"
         style="font-style:normal;font-variant:normal;font-weight:normal;font-stretch:normal;letter-spacing:normal;word-spacing:normal;text-anchor:start;fill:#000000;fill-opacity:1;fill-rule:evenodd;stroke:#000000;stroke-width:0;stroke-linecap:butt;stroke-linejoin:miter;stroke-miterlimit:10.43299961;stroke-dasharray:none;stroke-dashoffset:0;stroke-opacity:1"
         id="path9097" /></g>    <g
       style="font-style:normal;font-variant:normal;font-weight:normal;font-stretch:normal;letter-spacing:normal;word-spacing:normal;text-anchor:start;fill:#000000;fill-opacity:1;fill-rule:evenodd;stroke:#000000;stroke-linecap:butt;stroke-linejoin:miter;stroke-miterlimit:10.43299961;stroke-dasharray:none;stroke-dashoffset:0;stroke-opacity:1"
       ns0:preamble="C:\\Users\\Jonas\\AppData\\Roaming\\inkscape\\extensions\\default_packages.tex"
       ns0:text="$F$"
       word-spacing="normal"
       letter-spacing="normal"
       font-size-adjust="none"
       font-stretch="normal"
       font-weight="normal"
       font-variant="normal"
       font-style="normal"
       stroke-miterlimit="10.433"
       xml:space="preserve"
       transform="matrix(0.8,0,0,-0.8,37.302,780.86133)"
       id="g9247"><path
         id="path9245"
         style="font-style:normal;font-variant:normal;font-weight:normal;font-stretch:normal;letter-spacing:normal;word-spacing:normal;text-anchor:start;fill:#000000;fill-opacity:1;fill-rule:evenodd;stroke:#000000;stroke-width:0;stroke-linecap:butt;stroke-linejoin:miter;stroke-miterlimit:10.43299961;stroke-dasharray:none;stroke-dashoffset:0;stroke-opacity:1"
         word-spacing="normal"
         stroke-miterlimit="10.433"
         letter-spacing="normal"
         font-weight="normal"
         font-variant="normal"
         font-style="normal"
         font-stretch="normal"
         font-size-adjust="none"
         d="m 151.73,710.35 h 0.96 c 0.75,0 0.83,-0.15 0.83,-0.44 0,-0.07 0,-0.19 -0.07,-0.49 -0.02,-0.05 -0.03,-0.09 -0.03,-0.11 0,-0.08 0.06,-0.12 0.12,-0.12 0.1,0 0.1,0.03 0.15,0.21 l 0.54,2.15 c 0.03,0.11 0.03,0.13 0.03,0.16 0,0.02 -0.02,0.11 -0.12,0.11 -0.1,0 -0.1,-0.05 -0.15,-0.21 -0.2,-0.77 -0.43,-0.95 -1.28,-0.95 h -0.9 l 0.63,2.52 c 0.09,0.35 0.1,0.39 0.54,0.39 h 1.31 c 1.23,0 1.46,-0.33 1.46,-1.09 0,-0.23 0,-0.27 -0.03,-0.54 -0.02,-0.13 -0.02,-0.15 -0.02,-0.18 0,-0.05 0.03,-0.11 0.12,-0.11 0.11,0 0.11,0.06 0.14,0.24 l 0.19,1.72 c 0.03,0.27 -0.02,0.27 -0.27,0.27 h -4.87 c -0.2,0 -0.3,0 -0.3,-0.2 0,-0.11 0.09,-0.11 0.28,-0.11 0.37,0 0.65,0 0.65,-0.18 0,-0.04 0,-0.06 -0.05,-0.23 l -1.32,-5.26 c -0.09,-0.39 -0.12,-0.47 -0.9,-0.47 -0.17,0 -0.28,0 -0.28,-0.19 0,-0.11 0.12,-0.11 0.15,-0.11 0.29,0 1.02,0.03 1.31,0.03 0.33,0 1.16,-0.03 1.49,-0.03 0.09,0 0.2,0 0.2,0.18 0,0.08 -0.06,0.1 -0.06,0.11 -0.03,0.01 -0.05,0.01 -0.27,0.01 -0.22,0 -0.27,0 -0.52,0.02 -0.29,0.03 -0.32,0.07 -0.32,0.2 0,0.02 0,0.08 0.04,0.23 z"
         inkscape:connector-curvature="0" /></g>    <g
       id="g9375"
       transform="matrix(0.8,0,0,-0.8,37.366,801.77999)"
       xml:space="preserve"
       stroke-miterlimit="10.433"
       font-style="normal"
       font-variant="normal"
       font-weight="normal"
       font-stretch="normal"
       font-size-adjust="none"
       letter-spacing="normal"
       word-spacing="normal"
       ns0:text="$F_r$"
       ns0:preamble="C:\\Users\\Jonas\\AppData\\Roaming\\inkscape\\extensions\\default_packages.tex"
       style="font-style:normal;font-variant:normal;font-weight:normal;font-stretch:normal;letter-spacing:normal;word-spacing:normal;text-anchor:start;fill:#000000;fill-opacity:1;fill-rule:evenodd;stroke:#000000;stroke-linecap:butt;stroke-linejoin:miter;stroke-miterlimit:10.43299961;stroke-dasharray:none;stroke-dashoffset:0;stroke-opacity:1"><path
         inkscape:connector-curvature="0"
         d="m 151.73,710.35 h 0.96 c 0.75,0 0.83,-0.15 0.83,-0.44 0,-0.07 0,-0.19 -0.07,-0.49 -0.02,-0.05 -0.03,-0.09 -0.03,-0.11 0,-0.08 0.06,-0.12 0.12,-0.12 0.1,0 0.1,0.03 0.15,0.21 l 0.54,2.15 c 0.03,0.11 0.03,0.13 0.03,0.16 0,0.02 -0.02,0.11 -0.12,0.11 -0.1,0 -0.1,-0.05 -0.15,-0.21 -0.2,-0.77 -0.43,-0.95 -1.28,-0.95 h -0.9 l 0.63,2.52 c 0.09,0.35 0.1,0.39 0.54,0.39 h 1.31 c 1.23,0 1.46,-0.33 1.46,-1.09 0,-0.23 0,-0.27 -0.03,-0.54 -0.02,-0.13 -0.02,-0.15 -0.02,-0.18 0,-0.05 0.03,-0.11 0.12,-0.11 0.11,0 0.11,0.06 0.14,0.24 l 0.19,1.72 c 0.03,0.27 -0.02,0.27 -0.27,0.27 h -4.87 c -0.2,0 -0.3,0 -0.3,-0.2 0,-0.11 0.09,-0.11 0.28,-0.11 0.37,0 0.65,0 0.65,-0.18 0,-0.04 0,-0.06 -0.05,-0.23 l -1.32,-5.26 c -0.09,-0.39 -0.12,-0.47 -0.9,-0.47 -0.17,0 -0.28,0 -0.28,-0.19 0,-0.11 0.12,-0.11 0.15,-0.11 0.29,0 1.02,0.03 1.31,0.03 0.33,0 1.16,-0.03 1.49,-0.03 0.09,0 0.2,0 0.2,0.18 0,0.08 -0.06,0.1 -0.06,0.11 -0.03,0.01 -0.05,0.01 -0.27,0.01 -0.22,0 -0.27,0 -0.52,0.02 -0.29,0.03 -0.32,0.07 -0.32,0.2 0,0.02 0,0.08 0.04,0.23 z"
         font-size-adjust="none"
         font-stretch="normal"
         font-style="normal"
         font-variant="normal"
         font-weight="normal"
         letter-spacing="normal"
         stroke-miterlimit="10.433"
         word-spacing="normal"
         style="font-style:normal;font-variant:normal;font-weight:normal;font-stretch:normal;letter-spacing:normal;word-spacing:normal;text-anchor:start;fill:#000000;fill-opacity:1;fill-rule:evenodd;stroke:#000000;stroke-width:0;stroke-linecap:butt;stroke-linejoin:miter;stroke-miterlimit:10.43299961;stroke-dasharray:none;stroke-dashoffset:0;stroke-opacity:1"
         id="path9371" /><path
         inkscape:connector-curvature="0"
         d="m 156.76,707.04 v 0 0 0.01 0 0.01 0 0.01 l 0.01,0.01 v 0 0.01 0.01 0.01 l 0.01,0.01 v 0.01 l 0.01,0.03 v 0.02 l 0.01,0.03 0.01,0.03 v 0.03 l 0.01,0.03 0.01,0.03 0.01,0.06 0.02,0.06 0.01,0.03 0.01,0.03 v 0.03 l 0.01,0.03 0.01,0.02 v 0.03 l 0.01,0.02 v 0.01 l 0.01,0.01 v 0.01 0.01 0.01 l 0.01,0.01 v 0.01 0 0.01 0 0.01 h 0.01 v 0.01 0 c 0.01,0.05 0.21,0.4 0.44,0.57 0.07,0.05 0.26,0.19 0.56,0.19 0.07,0 0.24,0 0.38,-0.09 -0.22,-0.07 -0.3,-0.26 -0.3,-0.39 0,-0.15 0.11,-0.25 0.27,-0.25 0.17,0 0.39,0.13 0.39,0.42 0,0.36 -0.38,0.51 -0.73,0.51 -0.37,0 -0.68,-0.15 -0.99,-0.5 -0.12,0.43 -0.55,0.5 -0.71,0.5 -0.26,0 -0.43,-0.16 -0.55,-0.36 -0.16,-0.27 -0.25,-0.67 -0.25,-0.71 0,-0.09 0.09,-0.09 0.12,-0.09 0.09,0 0.1,0.02 0.15,0.21 0.1,0.43 0.24,0.75 0.51,0.75 0.18,0 0.23,-0.15 0.23,-0.34 0,-0.13 -0.07,-0.39 -0.11,-0.57 -0.05,-0.19 -0.12,-0.48 -0.16,-0.63 l -0.22,-0.89 c -0.03,-0.09 -0.07,-0.27 -0.07,-0.29 0,-0.15 0.12,-0.22 0.24,-0.22 0.1,0 0.24,0.06 0.29,0.2 0.02,0.04 0.1,0.35 0.14,0.52 z"
         font-size-adjust="none"
         font-stretch="normal"
         font-style="normal"
         font-variant="normal"
         font-weight="normal"
         letter-spacing="normal"
         stroke-miterlimit="10.433"
         word-spacing="normal"
         style="font-style:normal;font-variant:normal;font-weight:normal;font-stretch:normal;letter-spacing:normal;word-spacing:normal;text-anchor:start;fill:#000000;fill-opacity:1;fill-rule:evenodd;stroke:#000000;stroke-width:0;stroke-linecap:butt;stroke-linejoin:miter;stroke-miterlimit:10.43299961;stroke-dasharray:none;stroke-dashoffset:0;stroke-opacity:1"
         id="path9373" /></g>    <g
       style="font-style:normal;font-variant:normal;font-weight:normal;font-stretch:normal;letter-spacing:normal;word-spacing:normal;text-anchor:start;fill:#000000;fill-opacity:1;fill-rule:evenodd;stroke:#000000;stroke-linecap:butt;stroke-linejoin:miter;stroke-miterlimit:10.43299961;stroke-dasharray:none;stroke-dashoffset:0;stroke-opacity:1"
       ns0:preamble="C:\\Users\\Jonas\\AppData\\Roaming\\inkscape\\extensions\\default_packages.tex"
       ns0:text="$m_0$"
       word-spacing="normal"
       letter-spacing="normal"
       font-size-adjust="none"
       font-stretch="normal"
       font-weight="normal"
       font-variant="normal"
       font-style="normal"
       stroke-miterlimit="10.433"
       xml:space="preserve"
       transform="matrix(0.8,0,0,-0.8,1.496,787.04683)"
       id="g9529"><path
         id="path9525"
         style="font-style:normal;font-variant:normal;font-weight:normal;font-stretch:normal;letter-spacing:normal;word-spacing:normal;text-anchor:start;fill:#000000;fill-opacity:1;fill-rule:evenodd;stroke:#000000;stroke-width:0;stroke-linecap:butt;stroke-linejoin:miter;stroke-miterlimit:10.43299961;stroke-dasharray:none;stroke-dashoffset:0;stroke-opacity:1"
         word-spacing="normal"
         stroke-miterlimit="10.433"
         letter-spacing="normal"
         font-weight="normal"
         font-variant="normal"
         font-style="normal"
         font-stretch="normal"
         font-size-adjust="none"
         d="m 149.59,707.71 v -0.01 l -0.01,-0.02 v -0.01 -0.02 l -0.01,-0.03 -0.01,-0.03 -0.01,-0.03 v -0.04 l -0.01,-0.03 -0.01,-0.03 v -0.01 l -0.01,-0.02 v -0.01 -0.02 -0.01 l -0.01,-0.01 v -0.02 -0.01 -0.01 l -0.01,-0.01 v -0.01 -0.01 -0.01 0 -0.01 -0.01 c 0,-0.18 0.14,-0.26 0.29,-0.26 0.12,0 0.3,0.07 0.36,0.27 0.01,0.02 0.13,0.49 0.19,0.74 l 0.22,0.89 c 0.06,0.22 0.12,0.44 0.17,0.67 0.04,0.17 0.12,0.46 0.13,0.5 0.15,0.3 0.68,1.21 1.62,1.21 0.45,0 0.54,-0.37 0.54,-0.7 0,-0.25 -0.07,-0.52 -0.15,-0.82 l -0.28,-1.15 -0.2,-0.76 c -0.04,-0.2 -0.13,-0.54 -0.13,-0.59 0,-0.18 0.14,-0.26 0.29,-0.26 0.31,0 0.37,0.24 0.45,0.56 0.14,0.56 0.51,2.01 0.6,2.4 0.03,0.12 0.55,1.32 1.64,1.32 0.43,0 0.54,-0.34 0.54,-0.7 0,-0.56 -0.42,-1.7 -0.62,-2.22 -0.09,-0.24 -0.13,-0.35 -0.13,-0.55 0,-0.47 0.35,-0.81 0.82,-0.81 0.93,0 1.3,1.45 1.3,1.53 0,0.1 -0.09,0.1 -0.12,0.1 -0.1,0 -0.1,-0.04 -0.15,-0.18 -0.15,-0.53 -0.47,-1.24 -1.01,-1.24 -0.17,0 -0.24,0.1 -0.24,0.33 0,0.25 0.09,0.49 0.18,0.71 0.18,0.51 0.6,1.62 0.6,2.18 0,0.65 -0.4,1.07 -1.14,1.07 -0.75,0 -1.26,-0.44 -1.62,-0.97 -0.01,0.13 -0.04,0.47 -0.32,0.71 -0.25,0.21 -0.57,0.26 -0.82,0.26 -0.89,0 -1.38,-0.64 -1.55,-0.87 -0.05,0.57 -0.47,0.87 -0.92,0.87 -0.45,0 -0.64,-0.39 -0.73,-0.57 -0.18,-0.35 -0.31,-0.93 -0.31,-0.96 0,-0.1 0.1,-0.1 0.12,-0.1 0.1,0 0.11,0.01 0.17,0.22 0.17,0.71 0.37,1.19 0.72,1.19 0.17,0 0.31,-0.08 0.31,-0.46 0,-0.21 -0.03,-0.32 -0.16,-0.83 z"
         inkscape:connector-curvature="0" /><path
         id="path9527"
         style="font-style:normal;font-variant:normal;font-weight:normal;font-stretch:normal;letter-spacing:normal;word-spacing:normal;text-anchor:start;fill:#000000;fill-opacity:1;fill-rule:evenodd;stroke:#000000;stroke-width:0;stroke-linecap:butt;stroke-linejoin:miter;stroke-miterlimit:10.43299961;stroke-dasharray:none;stroke-dashoffset:0;stroke-opacity:1"
         word-spacing="normal"
         stroke-miterlimit="10.433"
         letter-spacing="normal"
         font-weight="normal"
         font-variant="normal"
         font-style="normal"
         font-stretch="normal"
         font-size-adjust="none"
         d="m 161.05,707.85 v 0.14 0.14 l -0.01,0.13 -0.01,0.12 -0.01,0.13 -0.01,0.12 -0.02,0.11 -0.02,0.11 -0.03,0.11 -0.03,0.11 -0.03,0.1 -0.04,0.1 -0.04,0.1 -0.05,0.09 -0.05,0.1 -0.03,0.04 -0.03,0.05 c -0.21,0.32 -0.65,0.6 -1.2,0.6 v -0.2 c 0.37,0 0.74,-0.23 0.86,-0.63 0.11,-0.38 0.12,-0.88 0.12,-1.48 0,-0.52 0,-1.03 -0.09,-1.47 -0.14,-0.63 -0.61,-0.78 -0.89,-0.78 v 0 c -0.32,0 -0.75,0.18 -0.89,0.76 -0.09,0.4 -0.09,0.97 -0.09,1.49 0,0.51 0,1.04 0.1,1.42 0.15,0.55 0.59,0.69 0.88,0.69 v 0.2 c -1.62,0 -1.62,-1.9 -1.62,-2.4 0,-0.5 0,-2.36 1.62,-2.36 1.61,0 1.61,1.86 1.61,2.36 z"
         inkscape:connector-curvature="0" /></g>    <path
       style="fill:none;stroke:#000000;stroke-width:0.26458332px;stroke-linecap:butt;stroke-linejoin:miter;stroke-opacity:1"
       d="m 74.083332,265.24999 22.489585,9.26042"
       id="path9624"
       inkscape:connector-curvature="0"
       sodipodi:nodetypes="cc" />
    <path
       style="fill:none;stroke:#000000;stroke-width:0.26458332px;stroke-linecap:butt;stroke-linejoin:miter;stroke-opacity:1"
       d="m 71.437499,289.06249 25.135418,-2.64583"
       id="path9626"
       inkscape:connector-curvature="0"
       sodipodi:nodetypes="cc" />
    <g
       id="g9713"
       transform="matrix(0.8,0,0,-0.8,-20.835,842.181)"
       xml:space="preserve"
       stroke-miterlimit="10.433"
       font-style="normal"
       font-variant="normal"
       font-weight="normal"
       font-stretch="normal"
       font-size-adjust="none"
       letter-spacing="normal"
       word-spacing="normal"
       ns0:text="$m_2, J_2, l_2$"
       ns0:preamble="C:\\Users\\Jonas\\AppData\\Roaming\\inkscape\\extensions\\default_packages.tex"
       style="font-style:normal;font-variant:normal;font-weight:normal;font-stretch:normal;letter-spacing:normal;word-spacing:normal;text-anchor:start;fill:#000000;fill-opacity:1;fill-rule:evenodd;stroke:#000000;stroke-linecap:butt;stroke-linejoin:miter;stroke-miterlimit:10.43299961;stroke-dasharray:none;stroke-dashoffset:0;stroke-opacity:1"><path
         inkscape:connector-curvature="0"
         d="m 149.59,707.71 v -0.01 l -0.01,-0.02 v -0.01 -0.02 l -0.01,-0.03 -0.01,-0.03 -0.01,-0.03 v -0.04 l -0.01,-0.03 -0.01,-0.03 v -0.01 l -0.01,-0.02 v -0.01 -0.02 -0.01 l -0.01,-0.01 v -0.02 -0.01 -0.01 l -0.01,-0.01 v -0.01 -0.01 -0.01 0 -0.01 -0.01 c 0,-0.18 0.14,-0.26 0.29,-0.26 0.12,0 0.3,0.07 0.36,0.27 0.01,0.02 0.13,0.49 0.19,0.74 l 0.22,0.89 c 0.06,0.22 0.12,0.44 0.17,0.67 0.04,0.17 0.12,0.46 0.13,0.5 0.15,0.3 0.68,1.21 1.62,1.21 0.45,0 0.54,-0.37 0.54,-0.7 0,-0.25 -0.07,-0.52 -0.15,-0.82 l -0.28,-1.15 -0.2,-0.76 c -0.04,-0.2 -0.13,-0.54 -0.13,-0.59 0,-0.18 0.14,-0.26 0.29,-0.26 0.31,0 0.37,0.24 0.45,0.56 0.14,0.56 0.51,2.01 0.6,2.4 0.03,0.12 0.55,1.32 1.64,1.32 0.43,0 0.54,-0.34 0.54,-0.7 0,-0.56 -0.42,-1.7 -0.62,-2.22 -0.09,-0.24 -0.13,-0.35 -0.13,-0.55 0,-0.47 0.35,-0.81 0.82,-0.81 0.93,0 1.3,1.45 1.3,1.53 0,0.1 -0.09,0.1 -0.12,0.1 -0.1,0 -0.1,-0.04 -0.15,-0.18 -0.15,-0.53 -0.47,-1.24 -1.01,-1.24 -0.17,0 -0.24,0.1 -0.24,0.33 0,0.25 0.09,0.49 0.18,0.71 0.18,0.51 0.6,1.62 0.6,2.18 0,0.65 -0.4,1.07 -1.14,1.07 -0.75,0 -1.26,-0.44 -1.62,-0.97 -0.01,0.13 -0.04,0.47 -0.32,0.71 -0.25,0.21 -0.57,0.26 -0.82,0.26 -0.89,0 -1.38,-0.64 -1.55,-0.87 -0.05,0.57 -0.47,0.87 -0.92,0.87 -0.45,0 -0.64,-0.39 -0.73,-0.57 -0.18,-0.35 -0.31,-0.93 -0.31,-0.96 0,-0.1 0.1,-0.1 0.12,-0.1 0.1,0 0.11,0.01 0.17,0.22 0.17,0.71 0.37,1.19 0.72,1.19 0.17,0 0.31,-0.08 0.31,-0.46 0,-0.21 -0.03,-0.32 -0.16,-0.83 z"
         font-size-adjust="none"
         font-stretch="normal"
         font-style="normal"
         font-variant="normal"
         font-weight="normal"
         letter-spacing="normal"
         stroke-miterlimit="10.433"
         word-spacing="normal"
         style="font-style:normal;font-variant:normal;font-weight:normal;font-stretch:normal;letter-spacing:normal;word-spacing:normal;text-anchor:start;fill:#000000;fill-opacity:1;fill-rule:evenodd;stroke:#000000;stroke-width:0;stroke-linecap:butt;stroke-linejoin:miter;stroke-miterlimit:10.43299961;stroke-dasharray:none;stroke-dashoffset:0;stroke-opacity:1"
         id="path9697" /><path
         inkscape:connector-curvature="0"
         d="m 160.98,706.9 h -0.24 c -0.02,-0.16 -0.09,-0.57 -0.18,-0.64 -0.06,-0.04 -0.59,-0.04 -0.69,-0.04 h -1.28 c 0.73,0.65 0.97,0.84 1.39,1.17 0.52,0.41 1,0.84 1,1.5 0,0.84 -0.74,1.36 -1.63,1.36 -0.87,0 -1.45,-0.61 -1.45,-1.25 0,-0.35 0.3,-0.39 0.37,-0.39 0.16,0 0.37,0.12 0.37,0.37 0,0.13 -0.05,0.37 -0.41,0.37 0.21,0.49 0.69,0.65 1.01,0.65 0.7,0 1.06,-0.54 1.06,-1.11 0,-0.6 -0.43,-1.08 -0.65,-1.33 l -1.68,-1.66 c -0.07,-0.06 -0.07,-0.07 -0.07,-0.27 h 2.87 z"
         font-size-adjust="none"
         font-stretch="normal"
         font-style="normal"
         font-variant="normal"
         font-weight="normal"
         letter-spacing="normal"
         stroke-miterlimit="10.433"
         word-spacing="normal"
         style="font-style:normal;font-variant:normal;font-weight:normal;font-stretch:normal;letter-spacing:normal;word-spacing:normal;text-anchor:start;fill:#000000;fill-opacity:1;fill-rule:evenodd;stroke:#000000;stroke-width:0;stroke-linecap:butt;stroke-linejoin:miter;stroke-miterlimit:10.43299961;stroke-dasharray:none;stroke-dashoffset:0;stroke-opacity:1"
         id="path9699" /><path
         inkscape:connector-curvature="0"
         d="m 163.95,707.14 v 0.06 0.05 l -0.01,0.06 v 0.06 l -0.01,0.05 -0.01,0.05 -0.01,0.06 -0.01,0.04 -0.01,0.05 -0.01,0.05 -0.01,0.04 -0.02,0.04 -0.02,0.04 -0.01,0.04 -0.02,0.04 -0.02,0.03 -0.03,0.04 -0.02,0.03 -0.02,0.02 -0.03,0.03 -0.02,0.03 -0.03,0.02 -0.03,0.02 -0.02,0.02 -0.03,0.01 -0.04,0.02 -0.03,0.01 -0.03,0.01 -0.03,0.01 h -0.04 l -0.03,0.01 h -0.04 c -0.33,0 -0.52,-0.25 -0.52,-0.53 0,-0.27 0.19,-0.52 0.52,-0.52 0.12,0 0.25,0.03 0.35,0.12 0.03,0.02 0.04,0.03 0.05,0.03 0.01,0 0.02,-0.01 0.02,-0.14 0,-0.74 -0.35,-1.34 -0.68,-1.66 -0.11,-0.11 -0.11,-0.13 -0.11,-0.16 0,-0.07 0.05,-0.11 0.1,-0.11 0.11,0 0.91,0.76 0.91,1.93 z"
         font-size-adjust="none"
         font-stretch="normal"
         font-style="normal"
         font-variant="normal"
         font-weight="normal"
         letter-spacing="normal"
         stroke-miterlimit="10.433"
         word-spacing="normal"
         style="font-style:normal;font-variant:normal;font-weight:normal;font-stretch:normal;letter-spacing:normal;word-spacing:normal;text-anchor:start;fill:#000000;fill-opacity:1;fill-rule:evenodd;stroke:#000000;stroke-width:0;stroke-linecap:butt;stroke-linejoin:miter;stroke-miterlimit:10.43299961;stroke-dasharray:none;stroke-dashoffset:0;stroke-opacity:1"
         id="path9701" /><path
         inkscape:connector-curvature="0"
         d="m 171.74,713.18 0.01,0.03 0.01,0.03 v 0.03 l 0.01,0.03 0.01,0.02 0.01,0.02 v 0.03 l 0.01,0.02 0.01,0.02 0.01,0.02 0.01,0.01 0.01,0.02 0.01,0.02 0.01,0.01 0.02,0.01 0.01,0.02 0.02,0.01 0.01,0.01 0.02,0.01 0.03,0.01 h 0.02 l 0.02,0.01 0.03,0.01 h 0.01 0.02 l 0.01,0.01 h 0.02 0.02 0.01 0.02 0.02 l 0.02,0.01 h 0.02 0.02 0.02 0.02 0.02 0.03 0.02 0.02 0.03 c 0.16,0 0.27,0 0.27,0.19 0,0.09 -0.06,0.12 -0.14,0.12 -0.25,0 -0.86,-0.03 -1.11,-0.03 -0.32,0 -1.13,0.03 -1.46,0.03 -0.09,0 -0.21,0 -0.21,-0.2 0,-0.11 0.08,-0.11 0.34,-0.11 0.23,0 0.33,0 0.58,-0.02 0.24,-0.03 0.31,-0.06 0.31,-0.2 0,-0.06 -0.02,-0.13 -0.04,-0.21 l -1.15,-4.56 c -0.24,-0.96 -0.91,-1.48 -1.43,-1.48 -0.26,0 -0.79,0.09 -0.95,0.61 0.03,-0.01 0.1,-0.01 0.12,-0.01 0.39,0 0.65,0.34 0.65,0.64 0,0.31 -0.27,0.41 -0.44,0.41 -0.18,0 -0.66,-0.12 -0.66,-0.79 0,-0.62 0.52,-1.08 1.31,-1.08 0.91,0 1.95,0.65 2.2,1.64 z"
         font-size-adjust="none"
         font-stretch="normal"
         font-style="normal"
         font-variant="normal"
         font-weight="normal"
         letter-spacing="normal"
         stroke-miterlimit="10.433"
         word-spacing="normal"
         style="font-style:normal;font-variant:normal;font-weight:normal;font-stretch:normal;letter-spacing:normal;word-spacing:normal;text-anchor:start;fill:#000000;fill-opacity:1;fill-rule:evenodd;stroke:#000000;stroke-width:0;stroke-linecap:butt;stroke-linejoin:miter;stroke-miterlimit:10.43299961;stroke-dasharray:none;stroke-dashoffset:0;stroke-opacity:1"
         id="path9703" /><path
         inkscape:connector-curvature="0"
         d="m 175.4,706.9 h -0.24 c -0.02,-0.16 -0.09,-0.57 -0.18,-0.64 -0.06,-0.04 -0.59,-0.04 -0.69,-0.04 h -1.28 c 0.73,0.65 0.97,0.84 1.39,1.17 0.52,0.41 1,0.84 1,1.5 0,0.84 -0.74,1.36 -1.63,1.36 -0.87,0 -1.45,-0.61 -1.45,-1.25 0,-0.35 0.3,-0.39 0.37,-0.39 0.17,0 0.37,0.12 0.37,0.37 0,0.13 -0.05,0.37 -0.41,0.37 0.21,0.49 0.69,0.65 1.01,0.65 0.7,0 1.06,-0.54 1.06,-1.11 0,-0.6 -0.43,-1.08 -0.65,-1.33 l -1.68,-1.66 c -0.07,-0.06 -0.07,-0.07 -0.07,-0.27 h 2.87 z"
         font-size-adjust="none"
         font-stretch="normal"
         font-style="normal"
         font-variant="normal"
         font-weight="normal"
         letter-spacing="normal"
         stroke-miterlimit="10.433"
         word-spacing="normal"
         style="font-style:normal;font-variant:normal;font-weight:normal;font-stretch:normal;letter-spacing:normal;word-spacing:normal;text-anchor:start;fill:#000000;fill-opacity:1;fill-rule:evenodd;stroke:#000000;stroke-width:0;stroke-linecap:butt;stroke-linejoin:miter;stroke-miterlimit:10.43299961;stroke-dasharray:none;stroke-dashoffset:0;stroke-opacity:1"
         id="path9705" /><path
         inkscape:connector-curvature="0"
         d="m 178.37,707.14 v 0.06 0.05 l -0.01,0.06 v 0.06 l -0.01,0.05 v 0.05 l -0.01,0.06 -0.01,0.04 -0.02,0.05 -0.01,0.05 -0.01,0.04 -0.02,0.04 -0.01,0.04 -0.02,0.04 -0.02,0.04 -0.02,0.03 -0.02,0.04 -0.03,0.03 -0.02,0.02 -0.02,0.03 -0.03,0.03 -0.03,0.02 -0.02,0.02 -0.03,0.02 -0.03,0.01 -0.03,0.02 -0.03,0.01 -0.04,0.01 -0.03,0.01 h -0.03 l -0.04,0.01 h -0.04 c -0.32,0 -0.52,-0.25 -0.52,-0.53 0,-0.27 0.2,-0.52 0.52,-0.52 0.12,0 0.25,0.03 0.35,0.12 0.03,0.02 0.04,0.03 0.05,0.03 0.01,0 0.02,-0.01 0.02,-0.14 0,-0.74 -0.35,-1.34 -0.67,-1.66 -0.11,-0.11 -0.11,-0.13 -0.11,-0.16 0,-0.07 0.05,-0.11 0.09,-0.11 0.11,0 0.91,0.76 0.91,1.93 z"
         font-size-adjust="none"
         font-stretch="normal"
         font-style="normal"
         font-variant="normal"
         font-weight="normal"
         letter-spacing="normal"
         stroke-miterlimit="10.433"
         word-spacing="normal"
         style="font-style:normal;font-variant:normal;font-weight:normal;font-stretch:normal;letter-spacing:normal;word-spacing:normal;text-anchor:start;fill:#000000;fill-opacity:1;fill-rule:evenodd;stroke:#000000;stroke-width:0;stroke-linecap:butt;stroke-linejoin:miter;stroke-miterlimit:10.43299961;stroke-dasharray:none;stroke-dashoffset:0;stroke-opacity:1"
         id="path9707" /><path
         inkscape:connector-curvature="0"
         d="m 183.35,713.91 v 0 0 0 0 0.01 0 0 0.01 0 0.01 0 h -0.01 v 0.01 0 0.01 0 l -0.01,0.01 v 0 0.01 h -0.01 v 0.01 0 h -0.01 v 0 0.01 h -0.01 v 0 0 h -0.01 v 0.01 0 h -0.01 v 0 0 h -0.01 v 0 h -0.01 v 0.01 h -0.01 v 0 h -0.01 v 0 h -0.01 v 0 h -0.01 c -0.23,0 -0.96,-0.08 -1.21,-0.1 -0.08,-0.01 -0.19,-0.02 -0.19,-0.21 0,-0.11 0.1,-0.11 0.25,-0.11 0.47,0 0.48,-0.09 0.48,-0.17 l -0.03,-0.2 -1.25,-4.96 c -0.03,-0.11 -0.05,-0.18 -0.05,-0.34 0,-0.57 0.44,-0.91 0.91,-0.91 0.32,0 0.57,0.19 0.74,0.55 0.18,0.38 0.3,0.96 0.3,0.98 0,0.1 -0.09,0.1 -0.12,0.1 -0.1,0 -0.11,-0.05 -0.14,-0.18 -0.17,-0.65 -0.36,-1.24 -0.76,-1.24 -0.29,0 -0.29,0.32 -0.29,0.46 0,0.24 0.01,0.29 0.06,0.48 z"
         font-size-adjust="none"
         font-stretch="normal"
         font-style="normal"
         font-variant="normal"
         font-weight="normal"
         letter-spacing="normal"
         stroke-miterlimit="10.433"
         word-spacing="normal"
         style="font-style:normal;font-variant:normal;font-weight:normal;font-stretch:normal;letter-spacing:normal;word-spacing:normal;text-anchor:start;fill:#000000;fill-opacity:1;fill-rule:evenodd;stroke:#000000;stroke-width:0;stroke-linecap:butt;stroke-linejoin:miter;stroke-miterlimit:10.43299961;stroke-dasharray:none;stroke-dashoffset:0;stroke-opacity:1"
         id="path9709" /><path
         inkscape:connector-curvature="0"
         d="m 187.27,706.9 h -0.24 c -0.02,-0.16 -0.09,-0.57 -0.18,-0.64 -0.06,-0.04 -0.59,-0.04 -0.69,-0.04 h -1.28 c 0.73,0.65 0.97,0.84 1.39,1.17 0.52,0.41 1,0.84 1,1.5 0,0.84 -0.74,1.36 -1.63,1.36 -0.87,0 -1.45,-0.61 -1.45,-1.25 0,-0.35 0.3,-0.39 0.37,-0.39 0.17,0 0.37,0.12 0.37,0.37 0,0.13 -0.05,0.37 -0.41,0.37 0.21,0.49 0.69,0.65 1.01,0.65 0.7,0 1.06,-0.54 1.06,-1.11 0,-0.6 -0.43,-1.08 -0.65,-1.33 l -1.68,-1.66 c -0.07,-0.06 -0.07,-0.07 -0.07,-0.27 h 2.87 z"
         font-size-adjust="none"
         font-stretch="normal"
         font-style="normal"
         font-variant="normal"
         font-weight="normal"
         letter-spacing="normal"
         stroke-miterlimit="10.433"
         word-spacing="normal"
         style="font-style:normal;font-variant:normal;font-weight:normal;font-stretch:normal;letter-spacing:normal;word-spacing:normal;text-anchor:start;fill:#000000;fill-opacity:1;fill-rule:evenodd;stroke:#000000;stroke-width:0;stroke-linecap:butt;stroke-linejoin:miter;stroke-miterlimit:10.43299961;stroke-dasharray:none;stroke-dashoffset:0;stroke-opacity:1"
         id="path9711" /></g>    <g
       style="font-style:normal;font-variant:normal;font-weight:normal;font-stretch:normal;letter-spacing:normal;word-spacing:normal;text-anchor:start;fill:#000000;fill-opacity:1;fill-rule:evenodd;stroke:#000000;stroke-linecap:butt;stroke-linejoin:miter;stroke-miterlimit:10.43299961;stroke-dasharray:none;stroke-dashoffset:0;stroke-opacity:1"
       ns0:preamble="C:\\Users\\Jonas\\AppData\\Roaming\\inkscape\\extensions\\default_packages.tex"
       ns0:text="$m_1, J_1, l_1$"
       word-spacing="normal"
       letter-spacing="normal"
       font-size-adjust="none"
       font-stretch="normal"
       font-weight="normal"
       font-variant="normal"
       font-style="normal"
       stroke-miterlimit="10.433"
       xml:space="preserve"
       transform="matrix(0.8,0,0,-0.8,-20.835334,854.141)"
       id="g9926"><path
         id="path9910"
         style="font-style:normal;font-variant:normal;font-weight:normal;font-stretch:normal;letter-spacing:normal;word-spacing:normal;text-anchor:start;fill:#000000;fill-opacity:1;fill-rule:evenodd;stroke:#000000;stroke-width:0;stroke-linecap:butt;stroke-linejoin:miter;stroke-miterlimit:10.43299961;stroke-dasharray:none;stroke-dashoffset:0;stroke-opacity:1"
         word-spacing="normal"
         stroke-miterlimit="10.433"
         letter-spacing="normal"
         font-weight="normal"
         font-variant="normal"
         font-style="normal"
         font-stretch="normal"
         font-size-adjust="none"
         d="m 149.59,707.71 v -0.01 l -0.01,-0.02 v -0.01 -0.02 l -0.01,-0.03 -0.01,-0.03 -0.01,-0.03 v -0.04 l -0.01,-0.03 -0.01,-0.03 v -0.01 l -0.01,-0.02 v -0.01 -0.02 -0.01 l -0.01,-0.01 v -0.02 -0.01 -0.01 l -0.01,-0.01 v -0.01 -0.01 -0.01 0 -0.01 -0.01 c 0,-0.18 0.14,-0.26 0.29,-0.26 0.12,0 0.3,0.07 0.36,0.27 0.01,0.02 0.13,0.49 0.19,0.74 l 0.22,0.89 c 0.06,0.22 0.12,0.44 0.17,0.67 0.04,0.17 0.12,0.46 0.13,0.5 0.15,0.3 0.68,1.21 1.62,1.21 0.45,0 0.54,-0.37 0.54,-0.7 0,-0.25 -0.07,-0.52 -0.15,-0.82 l -0.28,-1.15 -0.2,-0.76 c -0.04,-0.2 -0.13,-0.54 -0.13,-0.59 0,-0.18 0.14,-0.26 0.29,-0.26 0.31,0 0.37,0.24 0.45,0.56 0.14,0.56 0.51,2.01 0.6,2.4 0.03,0.12 0.55,1.32 1.64,1.32 0.43,0 0.54,-0.34 0.54,-0.7 0,-0.56 -0.42,-1.7 -0.62,-2.22 -0.09,-0.24 -0.13,-0.35 -0.13,-0.55 0,-0.47 0.35,-0.81 0.82,-0.81 0.93,0 1.3,1.45 1.3,1.53 0,0.1 -0.09,0.1 -0.12,0.1 -0.1,0 -0.1,-0.04 -0.15,-0.18 -0.15,-0.53 -0.47,-1.24 -1.01,-1.24 -0.17,0 -0.24,0.1 -0.24,0.33 0,0.25 0.09,0.49 0.18,0.71 0.18,0.51 0.6,1.62 0.6,2.18 0,0.65 -0.4,1.07 -1.14,1.07 -0.75,0 -1.26,-0.44 -1.62,-0.97 -0.01,0.13 -0.04,0.47 -0.32,0.71 -0.25,0.21 -0.57,0.26 -0.82,0.26 -0.89,0 -1.38,-0.64 -1.55,-0.87 -0.05,0.57 -0.47,0.87 -0.92,0.87 -0.45,0 -0.64,-0.39 -0.73,-0.57 -0.18,-0.35 -0.31,-0.93 -0.31,-0.96 0,-0.1 0.1,-0.1 0.12,-0.1 0.1,0 0.11,0.01 0.17,0.22 0.17,0.71 0.37,1.19 0.72,1.19 0.17,0 0.31,-0.08 0.31,-0.46 0,-0.21 -0.03,-0.32 -0.16,-0.83 z"
         inkscape:connector-curvature="0" /><path
         id="path9912"
         style="font-style:normal;font-variant:normal;font-weight:normal;font-stretch:normal;letter-spacing:normal;word-spacing:normal;text-anchor:start;fill:#000000;fill-opacity:1;fill-rule:evenodd;stroke:#000000;stroke-width:0;stroke-linecap:butt;stroke-linejoin:miter;stroke-miterlimit:10.43299961;stroke-dasharray:none;stroke-dashoffset:0;stroke-opacity:1"
         word-spacing="normal"
         stroke-miterlimit="10.433"
         letter-spacing="normal"
         font-weight="normal"
         font-variant="normal"
         font-style="normal"
         font-stretch="normal"
         font-size-adjust="none"
         d="m 159.79,710.05 v 0.01 0.01 0.01 0.01 0 0.01 0.01 0.01 0 0.01 0.01 0 0.01 0 0.01 0 0.01 0 l -0.01,0.01 v 0.01 0.01 h -0.01 v 0.01 0.01 h -0.01 v 0.01 h -0.01 -0.01 v 0.01 h -0.01 -0.01 -0.01 -0.01 v 0 h -0.01 v 0.01 h -0.01 v 0 h -0.01 -0.01 v 0 h -0.01 -0.01 -0.01 v 0 h -0.01 -0.01 -0.01 -0.01 -0.01 c -0.44,-0.44 -1.07,-0.45 -1.36,-0.45 v -0.25 c 0.17,0 0.63,0 1.01,0.2 v -3.55 c 0,-0.23 0,-0.32 -0.7,-0.32 h -0.26 v -0.25 c 0.12,0.01 0.98,0.03 1.24,0.03 0.21,0 1.09,-0.02 1.24,-0.03 v 0.25 h -0.26 c -0.7,0 -0.7,0.09 -0.7,0.32 z"
         inkscape:connector-curvature="0" /><path
         id="path9914"
         style="font-style:normal;font-variant:normal;font-weight:normal;font-stretch:normal;letter-spacing:normal;word-spacing:normal;text-anchor:start;fill:#000000;fill-opacity:1;fill-rule:evenodd;stroke:#000000;stroke-width:0;stroke-linecap:butt;stroke-linejoin:miter;stroke-miterlimit:10.43299961;stroke-dasharray:none;stroke-dashoffset:0;stroke-opacity:1"
         word-spacing="normal"
         stroke-miterlimit="10.433"
         letter-spacing="normal"
         font-weight="normal"
         font-variant="normal"
         font-style="normal"
         font-stretch="normal"
         font-size-adjust="none"
         d="m 163.95,707.14 v 0.06 0.05 l -0.01,0.06 v 0.06 l -0.01,0.05 -0.01,0.05 -0.01,0.06 -0.01,0.04 -0.01,0.05 -0.01,0.05 -0.01,0.04 -0.02,0.04 -0.02,0.04 -0.01,0.04 -0.02,0.04 -0.02,0.03 -0.03,0.04 -0.02,0.03 -0.02,0.02 -0.03,0.03 -0.02,0.03 -0.03,0.02 -0.03,0.02 -0.02,0.02 -0.03,0.01 -0.04,0.02 -0.03,0.01 -0.03,0.01 -0.03,0.01 h -0.04 l -0.03,0.01 h -0.04 c -0.33,0 -0.52,-0.25 -0.52,-0.53 0,-0.27 0.19,-0.52 0.52,-0.52 0.12,0 0.25,0.03 0.35,0.12 0.03,0.02 0.04,0.03 0.05,0.03 0.01,0 0.02,-0.01 0.02,-0.14 0,-0.74 -0.35,-1.34 -0.68,-1.66 -0.11,-0.11 -0.11,-0.13 -0.11,-0.16 0,-0.07 0.05,-0.11 0.1,-0.11 0.11,0 0.91,0.76 0.91,1.93 z"
         inkscape:connector-curvature="0" /><path
         id="path9916"
         style="font-style:normal;font-variant:normal;font-weight:normal;font-stretch:normal;letter-spacing:normal;word-spacing:normal;text-anchor:start;fill:#000000;fill-opacity:1;fill-rule:evenodd;stroke:#000000;stroke-width:0;stroke-linecap:butt;stroke-linejoin:miter;stroke-miterlimit:10.43299961;stroke-dasharray:none;stroke-dashoffset:0;stroke-opacity:1"
         word-spacing="normal"
         stroke-miterlimit="10.433"
         letter-spacing="normal"
         font-weight="normal"
         font-variant="normal"
         font-style="normal"
         font-stretch="normal"
         font-size-adjust="none"
         d="m 171.74,713.18 0.01,0.03 0.01,0.03 v 0.03 l 0.01,0.03 0.01,0.02 0.01,0.02 v 0.03 l 0.01,0.02 0.01,0.02 0.01,0.02 0.01,0.01 0.01,0.02 0.01,0.02 0.01,0.01 0.02,0.01 0.01,0.02 0.02,0.01 0.01,0.01 0.02,0.01 0.03,0.01 h 0.02 l 0.02,0.01 0.03,0.01 h 0.01 0.02 l 0.01,0.01 h 0.02 0.02 0.01 0.02 0.02 l 0.02,0.01 h 0.02 0.02 0.02 0.02 0.02 0.03 0.02 0.02 0.03 c 0.16,0 0.27,0 0.27,0.19 0,0.09 -0.06,0.12 -0.14,0.12 -0.25,0 -0.86,-0.03 -1.11,-0.03 -0.32,0 -1.13,0.03 -1.46,0.03 -0.09,0 -0.21,0 -0.21,-0.2 0,-0.11 0.08,-0.11 0.34,-0.11 0.23,0 0.33,0 0.58,-0.02 0.24,-0.03 0.31,-0.06 0.31,-0.2 0,-0.06 -0.02,-0.13 -0.04,-0.21 l -1.15,-4.56 c -0.24,-0.96 -0.91,-1.48 -1.43,-1.48 -0.26,0 -0.79,0.09 -0.95,0.61 0.03,-0.01 0.1,-0.01 0.12,-0.01 0.39,0 0.65,0.34 0.65,0.64 0,0.31 -0.27,0.41 -0.44,0.41 -0.18,0 -0.66,-0.12 -0.66,-0.79 0,-0.62 0.52,-1.08 1.31,-1.08 0.91,0 1.95,0.65 2.2,1.64 z"
         inkscape:connector-curvature="0" /><path
         id="path9918"
         style="font-style:normal;font-variant:normal;font-weight:normal;font-stretch:normal;letter-spacing:normal;word-spacing:normal;text-anchor:start;fill:#000000;fill-opacity:1;fill-rule:evenodd;stroke:#000000;stroke-width:0;stroke-linecap:butt;stroke-linejoin:miter;stroke-miterlimit:10.43299961;stroke-dasharray:none;stroke-dashoffset:0;stroke-opacity:1"
         word-spacing="normal"
         stroke-miterlimit="10.433"
         letter-spacing="normal"
         font-weight="normal"
         font-variant="normal"
         font-style="normal"
         font-stretch="normal"
         font-size-adjust="none"
         d="m 174.21,710.05 v 0.01 0.01 0.01 0.01 0 0.01 0.01 0.01 0 0.01 0.01 0 0.01 0 0.01 0 0.01 0 l -0.01,0.01 v 0.01 0.01 0 l -0.01,0.01 v 0.01 h -0.01 v 0.01 h -0.01 -0.01 v 0.01 h -0.01 -0.01 -0.01 v 0 h -0.01 -0.01 v 0.01 h -0.01 v 0 h -0.01 -0.01 v 0 h -0.01 -0.01 v 0 h -0.01 -0.01 -0.01 -0.01 -0.01 v 0 c -0.45,-0.44 -1.08,-0.45 -1.37,-0.45 v -0.25 c 0.17,0 0.63,0 1.01,0.2 v -3.55 c 0,-0.23 0,-0.32 -0.7,-0.32 h -0.26 v -0.25 c 0.12,0.01 0.98,0.03 1.24,0.03 0.21,0 1.09,-0.02 1.25,-0.03 v 0.25 h -0.27 c -0.7,0 -0.7,0.09 -0.7,0.32 z"
         inkscape:connector-curvature="0" /><path
         id="path9920"
         style="font-style:normal;font-variant:normal;font-weight:normal;font-stretch:normal;letter-spacing:normal;word-spacing:normal;text-anchor:start;fill:#000000;fill-opacity:1;fill-rule:evenodd;stroke:#000000;stroke-width:0;stroke-linecap:butt;stroke-linejoin:miter;stroke-miterlimit:10.43299961;stroke-dasharray:none;stroke-dashoffset:0;stroke-opacity:1"
         word-spacing="normal"
         stroke-miterlimit="10.433"
         letter-spacing="normal"
         font-weight="normal"
         font-variant="normal"
         font-style="normal"
         font-stretch="normal"
         font-size-adjust="none"
         d="m 178.37,707.14 v 0.06 0.05 l -0.01,0.06 v 0.06 l -0.01,0.05 v 0.05 l -0.01,0.06 -0.01,0.04 -0.02,0.05 -0.01,0.05 -0.01,0.04 -0.02,0.04 -0.01,0.04 -0.02,0.04 -0.02,0.04 -0.02,0.03 -0.02,0.04 -0.03,0.03 -0.02,0.02 -0.02,0.03 -0.03,0.03 -0.03,0.02 -0.02,0.02 -0.03,0.02 -0.03,0.01 -0.03,0.02 -0.03,0.01 -0.04,0.01 -0.03,0.01 h -0.03 l -0.04,0.01 h -0.04 c -0.32,0 -0.52,-0.25 -0.52,-0.53 0,-0.27 0.2,-0.52 0.52,-0.52 0.12,0 0.25,0.03 0.35,0.12 0.03,0.02 0.04,0.03 0.05,0.03 0.01,0 0.02,-0.01 0.02,-0.14 0,-0.74 -0.35,-1.34 -0.67,-1.66 -0.11,-0.11 -0.11,-0.13 -0.11,-0.16 0,-0.07 0.05,-0.11 0.09,-0.11 0.11,0 0.91,0.76 0.91,1.93 z"
         inkscape:connector-curvature="0" /><path
         id="path9922"
         style="font-style:normal;font-variant:normal;font-weight:normal;font-stretch:normal;letter-spacing:normal;word-spacing:normal;text-anchor:start;fill:#000000;fill-opacity:1;fill-rule:evenodd;stroke:#000000;stroke-width:0;stroke-linecap:butt;stroke-linejoin:miter;stroke-miterlimit:10.43299961;stroke-dasharray:none;stroke-dashoffset:0;stroke-opacity:1"
         word-spacing="normal"
         stroke-miterlimit="10.433"
         letter-spacing="normal"
         font-weight="normal"
         font-variant="normal"
         font-style="normal"
         font-stretch="normal"
         font-size-adjust="none"
         d="m 183.35,713.91 v 0 0 0 0 0.01 0 0 0.01 0 0.01 0 h -0.01 v 0.01 0 0.01 0 l -0.01,0.01 v 0 0.01 h -0.01 v 0.01 0 h -0.01 v 0 0.01 h -0.01 v 0 0 h -0.01 v 0.01 0 h -0.01 v 0 0 h -0.01 v 0 h -0.01 v 0.01 h -0.01 v 0 h -0.01 v 0 h -0.01 v 0 h -0.01 c -0.23,0 -0.96,-0.08 -1.21,-0.1 -0.08,-0.01 -0.19,-0.02 -0.19,-0.21 0,-0.11 0.1,-0.11 0.25,-0.11 0.47,0 0.48,-0.09 0.48,-0.17 l -0.03,-0.2 -1.25,-4.96 c -0.03,-0.11 -0.05,-0.18 -0.05,-0.34 0,-0.57 0.44,-0.91 0.91,-0.91 0.32,0 0.57,0.19 0.74,0.55 0.18,0.38 0.3,0.96 0.3,0.98 0,0.1 -0.09,0.1 -0.12,0.1 -0.1,0 -0.11,-0.05 -0.14,-0.18 -0.17,-0.65 -0.36,-1.24 -0.76,-1.24 -0.29,0 -0.29,0.32 -0.29,0.46 0,0.24 0.01,0.29 0.06,0.48 z"
         inkscape:connector-curvature="0" /><path
         id="path9924"
         style="font-style:normal;font-variant:normal;font-weight:normal;font-stretch:normal;letter-spacing:normal;word-spacing:normal;text-anchor:start;fill:#000000;fill-opacity:1;fill-rule:evenodd;stroke:#000000;stroke-width:0;stroke-linecap:butt;stroke-linejoin:miter;stroke-miterlimit:10.43299961;stroke-dasharray:none;stroke-dashoffset:0;stroke-opacity:1"
         word-spacing="normal"
         stroke-miterlimit="10.433"
         letter-spacing="normal"
         font-weight="normal"
         font-variant="normal"
         font-style="normal"
         font-stretch="normal"
         font-size-adjust="none"
         d="m 186.08,710.05 v 0.01 0.01 0.01 0.01 0 0.01 0.01 0.01 0 0.01 0.01 0 0.01 0 0.01 0 0.01 0 l -0.01,0.01 v 0.01 0.01 0 l -0.01,0.01 v 0.01 h -0.01 v 0.01 h -0.01 -0.01 v 0.01 h -0.01 -0.01 -0.01 v 0 h -0.01 -0.01 v 0.01 h -0.01 v 0 h -0.01 -0.01 v 0 h -0.01 -0.01 v 0 h -0.01 -0.01 -0.01 -0.01 -0.01 v 0 c -0.45,-0.44 -1.08,-0.45 -1.37,-0.45 v -0.25 c 0.17,0 0.63,0 1.01,0.2 v -3.55 c 0,-0.23 0,-0.32 -0.7,-0.32 h -0.26 v -0.25 c 0.12,0.01 0.98,0.03 1.24,0.03 0.21,0 1.09,-0.02 1.24,-0.03 v 0.25 h -0.26 c -0.7,0 -0.7,0.09 -0.7,0.32 z"
         inkscape:connector-curvature="0" /></g>  </g>
</svg>
